<?xml version="1.0" encoding="UTF-8"?>
<svg id="Capa_2" data-name="Capa 2" xmlns="http://www.w3.org/2000/svg" viewBox="0 0 186.74 50">
  <defs>
    <style>
      .cls-1 {
        fill: #fff;
      }
    </style>
  </defs>
  <g id="site">
    <g>
      <g>
        <path class="cls-1" d="M51.55,31.02l5.26-12.05h2.13l5.24,12.05h-2.76l-1.21-2.82h-4.68l-1.21,2.82h-2.78ZM57.89,22.14l-1.77,3.79h3.47l-1.7-3.79Z"/>
        <path class="cls-1" d="M69.85,31.23c-.95,0-1.88-.15-2.78-.45-.91-.3-1.68-.73-2.33-1.29l1.08-1.81c.69.49,1.36.86,2.02,1.11.65.25,1.3.38,1.95.38.57,0,1.03-.11,1.36-.32.33-.22.5-.52.5-.93s-.19-.7-.58-.88c-.39-.19-1.02-.4-1.9-.65-.73-.2-1.36-.4-1.88-.58-.52-.19-.93-.4-1.25-.64-.32-.24-.55-.51-.69-.82-.14-.31-.22-.68-.22-1.11,0-.57.11-1.09.33-1.55.22-.46.54-.85.94-1.17.4-.32.87-.57,1.41-.74.54-.17,1.12-.26,1.76-.26.85,0,1.64.12,2.38.37.74.24,1.42.64,2.04,1.19l-1.16,1.75c-.57-.43-1.13-.75-1.67-.95-.54-.2-1.07-.3-1.61-.3-.49,0-.9.1-1.23.3-.33.2-.5.52-.5.97,0,.2.04.37.12.5.08.13.2.24.38.34.17.1.4.2.68.29.28.09.63.19,1.05.29.78.2,1.44.4,1.99.6.55.2,1.01.43,1.36.69.35.26.61.56.78.89.17.34.25.74.25,1.22,0,1.11-.41,1.98-1.23,2.62-.82.64-1.93.96-3.34.96Z"/>
        <path class="cls-1" d="M81.54,31.23c-.91,0-1.72-.15-2.46-.46-.73-.31-1.36-.73-1.88-1.26-.52-.53-.92-1.15-1.2-1.85-.28-.7-.42-1.44-.42-2.22s.14-1.56.41-2.27c.27-.71.67-1.34,1.19-1.88s1.15-.97,1.89-1.28c.74-.32,1.57-.47,2.49-.47s1.74.16,2.47.47c.73.32,1.34.74,1.85,1.27.51.53.9,1.15,1.16,1.85.27.7.4,1.44.4,2.2,0,.19,0,.37-.01.54,0,.17-.03.32-.05.43h-8.73c.04.45.15.84.32,1.19.17.34.4.64.67.88.27.24.58.43.93.56.34.13.7.19,1.08.19.57,0,1.12-.14,1.63-.42.51-.28.86-.65,1.05-1.11l2.48.69c-.42.86-1.08,1.57-1.99,2.12-.91.55-2,.83-3.27.83ZM84.47,24.42c-.07-.85-.38-1.53-.94-2.04-.55-.51-1.23-.77-2.02-.77-.39,0-.75.07-1.09.2-.34.14-.64.33-.89.57-.26.24-.47.54-.64.88-.17.34-.26.73-.29,1.14h5.86Z"/>
        <path class="cls-1" d="M89.19,15.28h2.89v12.11c0,.42.1.74.3.97.2.23.49.34.86.34.17,0,.36-.03.57-.09.21-.06.41-.13.59-.22l.39,2.2c-.39.19-.84.33-1.36.43-.52.1-.98.15-1.4.15-.91,0-1.61-.24-2.1-.72-.5-.48-.74-1.17-.74-2.06v-13.13Z"/>
        <path class="cls-1" d="M96.02,15.28h2.89v12.11c0,.42.1.74.3.97.2.23.49.34.86.34.17,0,.36-.03.57-.09.21-.06.41-.13.59-.22l.39,2.2c-.39.19-.84.33-1.36.43-.52.1-.98.15-1.4.15-.91,0-1.61-.24-2.1-.72-.5-.48-.74-1.17-.74-2.06v-13.13Z"/>
        <path class="cls-1" d="M108.11,31.23c-.91,0-1.72-.15-2.46-.46-.73-.31-1.36-.73-1.88-1.26-.52-.53-.92-1.15-1.2-1.85-.28-.7-.42-1.44-.42-2.22s.14-1.56.41-2.27c.27-.71.67-1.34,1.19-1.88s1.15-.97,1.89-1.28c.74-.32,1.57-.47,2.49-.47s1.74.16,2.47.47c.73.32,1.34.74,1.85,1.27.51.53.9,1.15,1.16,1.85.27.7.4,1.44.4,2.2,0,.19,0,.37-.01.54,0,.17-.03.32-.05.43h-8.73c.04.45.15.84.32,1.19.17.34.4.64.67.88.27.24.58.43.93.56.34.13.7.19,1.08.19.57,0,1.12-.14,1.63-.42.51-.28.86-.65,1.05-1.11l2.48.69c-.42.86-1.08,1.57-1.99,2.12-.91.55-2,.83-3.27.83ZM111.04,24.42c-.07-.85-.38-1.53-.94-2.04-.55-.51-1.23-.77-2.02-.77-.39,0-.75.07-1.09.2-.34.14-.64.33-.89.57-.26.24-.47.54-.64.88-.17.34-.26.73-.29,1.14h5.86Z"/>
        <path class="cls-1" d="M122.51,22.22c-.88.01-1.66.18-2.35.51-.69.32-1.19.81-1.49,1.45v6.83h-2.89v-11.29h2.65v2.41c.2-.39.44-.74.71-1.05.27-.31.57-.58.88-.81.32-.23.64-.41.96-.53.32-.12.64-.18.94-.18h.36c.08,0,.15,0,.23.02v2.63Z"/>
        <path class="cls-1" d="M128.22,31.23c-.78,0-1.49-.15-2.14-.45-.65-.3-1.22-.72-1.69-1.25-.47-.53-.84-1.15-1.11-1.86-.27-.71-.4-1.48-.4-2.3s.13-1.58.39-2.3c.26-.71.61-1.33,1.07-1.85.45-.52.99-.94,1.61-1.24.62-.3,1.29-.45,2-.45.85,0,1.6.2,2.26.59.66.4,1.18.93,1.55,1.61v-1.85h2.89v11.14h-2.89v-1.83c-.37.65-.85,1.15-1.43,1.51-.58.36-1.28.54-2.1.54ZM131.76,24.21c-.26-.66-.65-1.2-1.17-1.61-.52-.41-1.1-.61-1.74-.61-.43,0-.83.1-1.2.29-.37.19-.68.45-.95.78-.27.32-.47.69-.61,1.1-.14.41-.22.84-.22,1.28s.08.89.23,1.3c.15.41.36.77.64,1.07.27.3.6.54.98.71.38.17.79.26,1.24.26.65,0,1.2-.17,1.67-.52.47-.34.84-.8,1.13-1.38v-2.67Z"/>
        <path class="cls-1" d="M136.54,25.37c0-.79.14-1.54.41-2.24.27-.7.67-1.32,1.19-1.85.52-.53,1.14-.96,1.88-1.27.73-.32,1.56-.47,2.48-.47,1.24,0,2.29.27,3.16.8.87.53,1.52,1.23,1.95,2.09l-2.82.86c-.24-.42-.57-.74-.97-.96-.4-.22-.85-.33-1.34-.33-.42,0-.8.08-1.16.25-.36.17-.67.4-.94.69-.27.29-.47.65-.63,1.07-.15.42-.23.88-.23,1.38s.08.96.24,1.38c.16.42.37.78.64,1.08.27.3.58.54.94.7.36.17.74.25,1.14.25.52,0,.99-.13,1.43-.39.44-.26.74-.57.92-.95l2.82.86c-.39.86-1.03,1.57-1.92,2.11-.89.55-1.96.82-3.21.82-.92,0-1.75-.16-2.48-.47-.73-.32-1.36-.74-1.88-1.28s-.92-1.16-1.2-1.88-.42-1.45-.42-2.23Z"/>
        <path class="cls-1" d="M156.18,30.44c-.39.17-.86.34-1.42.52-.56.17-1.15.26-1.77.26-.4,0-.78-.05-1.13-.15-.35-.1-.66-.26-.93-.49-.27-.22-.48-.51-.64-.86-.16-.35-.24-.78-.24-1.28v-6.49h-1.49v-2.22h1.49v-3.66h2.89v3.66h2.37v2.22h-2.37v5.52c0,.4.1.69.31.85.21.17.46.25.77.25s.6-.05.88-.15c.29-.1.52-.19.69-.26l.58,2.28Z"/>
        <path class="cls-1" d="M157.69,18.15v-2.87h2.89v2.87h-2.89ZM157.69,31.02v-11.29h2.89v11.29h-2.89Z"/>
        <path class="cls-1" d="M168.4,31.23c-.92,0-1.75-.16-2.48-.47-.73-.32-1.35-.74-1.86-1.28-.51-.54-.9-1.16-1.17-1.86-.27-.7-.41-1.44-.41-2.22s.14-1.54.41-2.24c.27-.7.66-1.33,1.17-1.86.51-.54,1.13-.97,1.86-1.28.73-.32,1.56-.47,2.48-.47s1.74.16,2.47.47c.73.32,1.34.74,1.85,1.28.51.54.9,1.16,1.17,1.86.27.7.41,1.45.41,2.24s-.14,1.52-.41,2.22c-.27.7-.66,1.33-1.16,1.86-.5.54-1.12.97-1.85,1.28-.73.32-1.56.47-2.48.47ZM165.45,25.39c0,.5.08.96.23,1.37s.36.77.63,1.07c.27.3.58.54.94.7.36.17.75.25,1.16.25s.8-.08,1.16-.25c.36-.17.67-.4.94-.7.27-.3.47-.66.62-1.08.15-.42.23-.88.23-1.38s-.08-.94-.23-1.36c-.15-.42-.36-.78-.62-1.08-.27-.3-.58-.54-.94-.7-.36-.17-.75-.25-1.16-.25s-.8.09-1.16.26c-.36.17-.67.41-.94.71-.27.3-.47.66-.63,1.08-.15.42-.23.87-.23,1.36Z"/>
        <path class="cls-1" d="M186.74,31.02h-2.89v-6.34c0-.91-.16-1.57-.47-1.98-.32-.42-.75-.62-1.31-.62-.29,0-.58.06-.88.17-.3.12-.59.28-.85.49-.27.21-.51.46-.72.74-.22.29-.37.6-.47.95v6.6h-2.89v-11.29h2.61v2.09c.42-.72,1.02-1.28,1.81-1.68.79-.4,1.68-.6,2.67-.6.7,0,1.28.13,1.72.39.45.26.79.6,1.03,1.01.24.42.41.89.51,1.42.09.53.14,1.07.14,1.62v7.05Z"/>
      </g>
      <g>
        <g>
          <path class="cls-1" d="M36.53,40.33l-2.82-1.63-10.55,6.09c-.53.3-1.12.46-1.73.46s-1.21-.16-1.73-.46l-10.55-6.09-2.82,1.63c-.5.29-.5,1.01,0,1.3l13.98,8.07c.7.4,1.55.4,2.25,0l13.98-8.07c.5-.29.5-1.01,0-1.3Z"/>
          <path class="cls-1" d="M20.56,43.31c.27.16.57.23.88.23s.6-.08.88-.23l9.69-5.6,1.53-.88c.5-.29.5-1.01,0-1.3l-3.03-1.75-2.65,1.53-4.93,2.85c-.45.26-.96.4-1.48.4s-1.03-.14-1.48-.4l-4.93-2.85-2.65-1.53-3.03,1.75c-.5.29-.5,1.01,0,1.3l1.53.88,9.69,5.6Z"/>
          <path class="cls-1" d="M14.08,32.79l2.65,1.53,4.08,2.35c.19.11.41.17.62.17s.43-.06.63-.17l4.08-2.35,2.65-1.53.86-.49.86-.49.35-.2c.33-.19.33-.67,0-.87l-8.8-5.08c-.19-.11-.41-.17-.63-.17s-.43.06-.63.17l-8.8,5.08c-.33.19-.33.67,0,.87l.35.2.86.49.86.49Z"/>
        </g>
        <path class="cls-1" d="M0,12.87v22.99c0,.46.59.65.86.28L20.67,9.41c.38-.51,1.15-.51,1.53,0l19.81,26.73c.27.37.86.18.86-.28V12.87c0-.51-.27-.98-.71-1.24L22.5.29c-.66-.38-1.48-.38-2.14,0L.71,11.63c-.44.26-.71.73-.71,1.24Z"/>
      </g>
    </g>
  </g>
</svg>