<?xml version="1.0" encoding="UTF-8"?>
<svg id="Layer_2" data-name="Layer 2" xmlns="http://www.w3.org/2000/svg" viewBox="0 0 287.13 30">
  <defs>
    <style>
      .cls-1, .cls-2 {
        fill: #fff;
      }

      .cls-2 {
        fill-rule: evenodd;
      }
    </style>
  </defs>
  <g id="site">
    <g>
      <g>
        <path class="cls-2" d="m184.11,25.73l1.33-6.26c.73.09,1.68.17,3.01.17,3.1,0,5.62-.85,7.38-2.34,1.76-1.5,2.73-3.65,2.73-6.22,0-1.74-.47-3.21-1.34-4.35-.88-1.14-2.16-1.95-3.77-2.39-.94-.26-1.99-.39-3.13-.39-1.22,0-3.6.33-5.03.57l-.09.02-4.52,21.19h3.43Zm4.19-9.25c-.47,0-.88,0-1.26-.02-.34-.02-.65-.04-.95-.08l1.94-9.08c.62-.09,1.49-.2,2.38-.2.55,0,1.05.04,1.51.13.87.17,1.57.49,2.09.94.79.68,1.19,1.67,1.19,2.93,0,1.61-.58,2.95-1.72,3.89-1.14.94-2.87,1.49-5.18,1.49Z"/>
        <path class="cls-1" d="m214.33,25.73l4.56-21.39h-3.43l-4.56,21.39h3.43,0Z"/>
        <path class="cls-2" d="m257.68,12.06l1.66-7.73h3.44l-3.01,14.02c-.27,1.23-.5,2.62-.5,3.45,0,.34.04.59.13.76.04.08.09.14.15.18.06.04.13.06.23.06.12,0,.28-.06.46-.18.18-.12.38-.3.58-.51.4-.42.81-.98,1.17-1.54,0-.07,0-.14,0-.21,0-2.29.82-4.65,2.24-6.43,1.42-1.78,3.46-3,5.88-3,1.68,0,3.03.59,3.95,1.6.92,1.01,1.41,2.42,1.41,4.05,0,3.9-2.34,7.96-5.99,9.13-.67.21-1.39.33-2.13.33s-1.42-.12-2.03-.33c-1.05-.37-1.87-1.05-2.44-1.95-.7.89-1.49,1.57-2.36,1.94-.51.22-1.05.34-1.61.34s-1.05-.11-1.47-.34c-.89-.48-1.41-1.45-1.48-2.8-.78,1.29-1.84,2.31-3.19,2.81-.58.21-1.21.33-1.9.33-.64,0-1.23-.12-1.76-.33-1.11-.45-1.93-1.33-2.42-2.46-.74,1.22-1.54,2.03-2.45,2.45-.49.23-1.01.34-1.54.34s-1-.12-1.4-.34c-.85-.48-1.34-1.41-1.43-2.61-.73,1.18-1.71,2.14-2.98,2.62-.57.21-1.19.33-1.88.33-.64,0-1.23-.12-1.77-.33-.67-.27-1.19-.71-1.59-1.27-.71.71-1.55,1.23-2.44,1.5-1,.31-2.09.32-3.11-.1-1.03-.43-1.86-1.25-2.38-2.34-.27-.56-.54-1.23-.8-1.87-.07-.18-.15-.36-.22-.53-.16-.39-.32-.76-.48-1.13-.37.08-.73.13-1.06.16l-1.2,5.61h-3.54l4.58-21.5h3.54l-2.54,11.92c1.79-.52,4.25-1.99,5.95-5.63l3.36,1.6c-1.57,3.36-3.73,5.42-5.86,6.62.15.35.3.69.43,1.02.09.22.17.42.25.62.25.62.46,1.15.68,1.61.19.4.42.56.58.63.18.08.45.1.8,0,.7-.22,1.63-.99,2.09-2.47l.34-1.49c.13-.98.38-1.87.69-2.53,1.5-3.14,4.5-5.26,7.82-5.26,1.08,0,2.21.26,3.2.66.99.4,1.84.93,2.37,1.48l.05.05-.02.07c-.11.47-.24,1.03-.38,1.66-.23,1.01-.5,2.16-.75,3.27-.2.89-.37,1.75-.5,2.46-.13.72-.21,1.28-.21,1.6,0,.24.05.41.12.52.07.1.17.15.3.15.19,0,.41-.1.67-.35.26-.24.53-.6.83-1.08.59-.96,1.23-2.36,1.91-4.14,1.25-3.8,4.47-6.3,7.69-6.3,1.48,0,2.51.44,3.24,1.12h0Zm-17.3,5.07l.63-2.66c-.59-.35-1.25-.59-2.1-.59-1.47,0-2.77.82-3.71,2.05-.94,1.23-1.5,2.85-1.5,4.4,0,.79.19,1.43.53,1.87.34.44.84.69,1.5.69.99,0,1.93-.5,2.74-1.48.81-.98,1.48-2.43,1.91-4.28h0Zm16.53-1.59l.16-.78c-.6-.47-1.41-.82-2.46-.82-1.41,0-2.66.8-3.56,2.01-.9,1.21-1.44,2.81-1.44,4.39,0,.82.19,1.46.52,1.89.33.43.81.67,1.42.67,1.13,0,2.22-.72,3.17-2.02.94-1.3,1.72-3.14,2.19-5.33h0Zm9.04,6.58c.36.48.93.77,1.75.77,1.18,0,2.27-.78,3.06-1.95.79-1.17,1.28-2.7,1.28-4.14,0-.78-.18-1.45-.54-1.93-.36-.48-.93-.77-1.75-.77-1.18,0-2.27.79-3.06,1.97-.79,1.17-1.28,2.7-1.28,4.13,0,.78.17,1.45.54,1.93Z"/>
        <path class="cls-1" d="m287.13,21.7l-.08.12c-.63.93-1.49,1.97-2.07,2.49-.48.43-1.02.82-1.63,1.13-.73.37-1.54.61-2.41.61-.74,0-1.38-.13-1.92-.38-1.46-.67-2.14-2.15-2.14-3.96,0-.71.08-1.41.17-1.96h0s0-.02,0-.02c.03-.19.06-.36.1-.51l1.06-4.99h-2.35l.64-3.01h2.33l1.25-5.78h3.43l-1.25,5.78h4.16l-.64,3.01h-4.17l-1.08,5.1s0,.02,0,.03h0s0,0,0,0c0,.01,0,.02,0,.04h0c-.14.73-.25,1.37-.25,1.91,0,.49.1.87.28,1.13.17.25.43.38.77.38.39,0,.75-.14,1.15-.43.4-.29.84-.72,1.39-1.29.04-.05.31-.38.6-.74l.24-.29,2.42,1.62Z"/>
        <path class="cls-2" d="m205.67,10.94c-2.42,0-4.46,1.22-5.88,3-1.42,1.78-2.24,4.14-2.24,6.43,0,2.57,1.2,4.59,3.34,5.35.6.22,1.28.33,2.02.33s1.46-.12,2.13-.33c3.66-1.17,6-5.23,6-9.13,0-1.63-.49-3.05-1.41-4.05-.92-1.01-2.27-1.6-3.95-1.6Zm-2.4,11.96c-.82,0-1.39-.3-1.75-.77-.37-.48-.54-1.16-.54-1.93,0-1.42.49-2.96,1.28-4.13.8-1.18,1.88-1.97,3.06-1.97.82,0,1.39.3,1.75.77.37.48.54,1.16.54,1.93,0,1.44-.49,2.97-1.28,4.14-.8,1.17-1.88,1.95-3.06,1.95Z"/>
        <path class="cls-1" d="m161.24,6.3c2.95,0,5.34-1.41,5.34-3.15s-2.39-3.15-5.34-3.15-5.34,1.41-5.34,3.15,2.39,3.15,5.34,3.15Z"/>
        <path class="cls-1" d="m161.24,30c2.95,0,5.34-1.41,5.34-3.15s-2.39-3.15-5.34-3.15-5.34,1.41-5.34,3.15,2.39,3.15,5.34,3.15Z"/>
        <path class="cls-1" d="m153.79,10.65c1.48-2.59,1.47-5.39-.02-6.26-1.49-.87-3.89.52-5.36,3.11-1.48,2.59-1.47,5.39.02,6.26,1.49.87,3.89-.52,5.36-3.11Z"/>
        <path class="cls-1" d="m174.07,22.5c1.48-2.59,1.47-5.39-.02-6.26-1.49-.87-3.89.52-5.37,3.11s-1.47,5.39.02,6.26c1.49.87,3.89-.52,5.37-3.11Z"/>
        <path class="cls-1" d="m153.77,25.61c1.49-.87,1.5-3.67.02-6.26-1.48-2.59-3.88-3.98-5.37-3.11-1.49.87-1.5,3.67-.02,6.26,1.48,2.59,3.88,3.98,5.37,3.11Z"/>
        <path class="cls-1" d="m174.05,13.76c1.49-.87,1.5-3.67.02-6.26-1.48-2.59-3.88-3.98-5.37-3.11-1.49.87-1.5,3.67-.02,6.26,1.48,2.59,3.88,3.98,5.37,3.11Z"/>
      </g>
      <g>
        <path class="cls-1" d="m8.1,9.07H0v10.8h4.1v-2.57h4c1.61,0,2.74-.37,3.4-1.1s.98-1.74.98-3.02-.33-2.27-.98-3-1.79-1.11-3.4-1.11Zm-.02,5.26c-.23.19-.59.29-1.07.29h-2.9v-2.87h2.9c.48,0,.84.1,1.07.3.23.2.35.58.35,1.13s-.12.95-.35,1.15Z"/>
        <path class="cls-1" d="m20.51,8.97c-2.33,0-4.08.47-5.24,1.42s-1.75,2.31-1.75,4.08.58,3.14,1.75,4.09,2.91,1.42,5.24,1.42,4.08-.47,5.24-1.42,1.74-2.31,1.74-4.09-.58-3.13-1.74-4.08-2.91-1.42-5.24-1.42Zm2.11,7.78c-.53.37-1.23.55-2.11.55s-1.58-.18-2.11-.55c-.53-.37-.79-1.13-.79-2.28s.26-1.93.79-2.28c.53-.35,1.23-.53,2.11-.53s1.58.18,2.11.53c.53.35.79,1.12.79,2.28s-.26,1.92-.79,2.28Z"/>
        <polygon class="cls-1" points="42.65 16.75 40.9 9.07 35.2 9.07 33.45 16.73 32.1 9.07 27.63 9.07 30.12 19.87 36.42 19.87 38.05 11.83 39.65 19.87 45.98 19.87 48.57 9.07 44.1 9.07 42.65 16.75"/>
        <polygon class="cls-1" points="49.81 19.87 60.7 19.87 60.7 17.19 53.9 17.19 53.9 15.71 60.1 15.71 60.1 13.2 53.9 13.2 53.9 11.75 60.7 11.75 60.7 9.07 49.81 9.07 49.81 19.87"/>
        <path class="cls-1" d="m74,15.24c.7-.62,1.05-1.48,1.05-2.59s-.33-2-.99-2.64c-.66-.63-1.69-.95-3.07-.95h-8.51v10.8h4.1v-3.7h1.69l2.59,3.7h4.54l-3-3.88c.66-.15,1.21-.39,1.62-.75Zm-7.43-3.49h3.15c.44,0,.76.08.95.24.19.16.28.4.28.74s-.1.59-.28.74c-.19.15-.51.23-.95.23h-3.15v-1.94Z"/>
        <polygon class="cls-1" points="76.5 19.87 87.39 19.87 87.39 17.19 80.59 17.19 80.59 15.71 86.79 15.71 86.79 13.2 80.59 13.2 80.59 11.75 87.39 11.75 87.39 9.07 76.5 9.07 76.5 19.87"/>
        <path class="cls-1" d="m96.89,9.07h-7.72v10.8h7.72c1.78,0,3.11-.42,4.02-1.26.9-.84,1.35-2.22,1.35-4.14s-.45-3.31-1.35-4.14c-.9-.83-2.24-1.25-4.02-1.25Zm.72,7.64c-.37.32-.96.48-1.74.48h-2.61v-5.44h2.61c.79,0,1.37.16,1.74.48.37.32.56,1.06.56,2.24s-.19,1.93-.56,2.25Z"/>
        <path class="cls-1" d="m119.26,14.24c.69-.03,1.24-.27,1.65-.74.41-.46.61-1.05.61-1.77s-.27-1.38-.8-1.89c-.53-.51-1.67-.77-3.42-.77h-8.14v10.8h8.62c1.76,0,2.9-.28,3.41-.84.51-.56.77-1.29.77-2.19,0-.83-.28-1.46-.83-1.9-.55-.44-1.17-.67-1.87-.7Zm-6-2.5h3.28c.36,0,.59.05.69.16.1.11.16.28.16.52s-.05.43-.16.56c-.1.13-.33.2-.69.2h-3.28v-1.43Zm4.45,5.26c-.1.13-.38.19-.81.19h-3.64v-1.74h3.64c.44,0,.71.07.81.2.1.14.16.36.16.68s-.05.54-.16.66Z"/>
        <polygon class="cls-1" points="137.65 9.07 133.13 9.07 130.01 13.05 126.86 9.07 122.34 9.07 127.97 15.81 127.97 19.87 132.05 19.87 132.05 15.81 137.65 9.07"/>
      </g>
    </g>
  </g>
</svg>