<?xml version="1.0" encoding="UTF-8"?>
<svg id="Capa_2" data-name="Capa 2" xmlns="http://www.w3.org/2000/svg" viewBox="0 0 123.83 50">
  <defs>
    <style>
      .cls-1 {
        fill: #fff;
      }
    </style>
  </defs>
  <g id="site">
    <g id="Layer_1-2" data-name="Layer 1-2">
      <g>
        <polygon class="cls-1" points="123.83 3.55 103.21 3.55 104.49 0 123.83 0 123.83 3.55"/>
        <path class="cls-1" d="M68.88,0h19.14l1.25,3.57h-20.38V0h-.01Z"/>
        <path class="cls-1" d="M53.69,0c3.16.3,5.89,1.43,8.23,3.55H27.23V0h26.46Z"/>
        <rect class="cls-1" x="0" width="24.1" height="3.55"/>
        <path class="cls-1" d="M123.83,10.22h-22.97s1.25-3.54,1.24-3.54h21.73s0,3.54,0,3.54Z"/>
        <polygon class="cls-1" points="91.64 10.22 68.88 10.22 68.88 6.68 90.4 6.68 91.64 10.22"/>
        <path class="cls-1" d="M64.61,6.68c.46,1.16,1,2.17,1,3.54H27.23v-3.54h37.38Z"/>
        <rect class="cls-1" x="0" y="6.68" width="24.1" height="3.54"/>
        <polygon class="cls-1" points="98.51 16.91 99.76 13.36 117.01 13.36 117.01 16.9 98.51 16.91"/>
        <polygon class="cls-1" points="92.75 13.36 94 16.91 75.67 16.91 75.67 13.36 92.75 13.36"/>
        <path class="cls-1" d="M65.92,13.36c0,1.22-.16,2.48-.5,3.55h-10.52v-3.55h11.02Z"/>
        <rect class="cls-1" x="6.72" y="13.37" width="10.36" height="3.54"/>
        <rect class="cls-1" x="34.2" y="13.36" width="10.34" height="3.55"/>
        <path class="cls-1" d="M85.85,20.74v2.69h-10.18v-3.54h19.41l1.2,3.3,1.16-3.3h19.56v3.54h-10.13v-2.69l-.94,2.69h-19.14s-.94-2.69-.94-2.69Z"/>
        <path class="cls-1" d="M34.2,19.91h29.68c-.65,1.19-1.82,2.63-2.95,3.54h-26.74s0-3.53,0-3.54Z"/>
        <rect class="cls-1" x="6.72" y="19.91" width="10.36" height="3.54"/>
        <rect class="cls-1" x="106.87" y="26.58" width="10.13" height="3.54"/>
        <path class="cls-1" d="M85.85,26.58h-10.18v3.54h10.18v-3.54Z"/>
        <path class="cls-1" d="M104.82,26.58s-1.19,3.54-1.23,3.54h-14.44l-1.27-3.54h16.95-.01Z"/>
        <path class="cls-1" d="M34.2,26.57h26.68c1.22,1.02,2.32,2.27,3.18,3.54.05,0-29.87,0-29.87,0v-3.54Z"/>
        <polygon class="cls-1" points="17.08 30.11 17.08 26.57 6.74 26.57 6.74 30.11 17.08 30.11"/>
        <rect class="cls-1" x="106.87" y="33.24" width="10.13" height="3.54"/>
        <rect class="cls-1" x="75.67" y="33.24" width="10.18" height="3.54"/>
        <path class="cls-1" d="M101.22,36.79s1.25-3.55,1.27-3.55h-12.27l1.25,3.54s9.75.03,9.75.01Z"/>
        <path class="cls-1" d="M34.2,36.78v-3.54h10.49v3.54h-10.49Z"/>
        <path class="cls-1" d="M65.55,33.24c.5,1.07.55,2.34.66,3.55h-11.12v-3.55h10.46Z"/>
        <rect class="cls-1" x="6.74" y="33.24" width="10.34" height="3.54"/>
        <rect class="cls-1" x="106.87" y="39.78" width="16.95" height="3.54"/>
        <rect class="cls-1" x="68.88" y="39.78" width="16.97" height="3.54"/>
        <polygon class="cls-1" points="98.94 43.32 93.76 43.32 92.52 39.78 100.13 39.78 98.94 43.32"/>
        <path class="cls-1" d="M0,39.78v3.54h24.08v-3.54S-.03,39.78,0,39.78Z"/>
        <path class="cls-1" d="M65.76,39.78c-.25,1.16-.49,2.59-1.33,3.54H27.23v-3.54h38.53Z"/>
        <polygon class="cls-1" points="96.59 49.99 96.12 49.99 94.9 46.45 97.83 46.45 96.59 49.99"/>
        <rect class="cls-1" x="106.87" y="46.45" width="16.95" height="3.55"/>
        <path class="cls-1" d="M27.23,49.99v-3.54h34.89c-2.34,2.23-5.54,3.5-9,3.54h-25.89"/>
        <rect class="cls-1" x="68.88" y="46.45" width="16.97" height="3.55"/>
        <path class="cls-1" d="M24.08,46.46v3.53S.01,50,0,49.99v-3.54s24.07.03,24.08,0h0Z"/>
      </g>
    </g>
  </g>
</svg>