<?xml version="1.0" encoding="UTF-8"?>
<svg id="Layer_2" data-name="Layer 2" xmlns="http://www.w3.org/2000/svg" viewBox="0 0 650 52">
  <defs>
    <style>
      .cls-1 {
        fill: lime;
      }
    </style>
  </defs>
  <g id="total_xpand" data-name="total xpand">
    <g>
      <path class="cls-1" d="m55,18.5v-5h-20v5h10v10h-5v-5h-5v-5h-15v5h10v10h10v5h5v-5h5v5h14.81v-20h-9.81Zm0,15v-5h5v5h-5Z"/>
      <rect class="cls-1" x="25" y="33.5" width="5" height="5"/>
      <rect class="cls-1" x="5" y="33.5" width="5" height="5"/>
      <rect class="cls-1" x="10" y="18.5" width="5" height="5"/>
      <rect class="cls-1" y="18.5" width="5" height="5"/>
      <rect class="cls-1" x="10" y="28.5" width="10" height="5"/>
      <rect class="cls-1" x="15" y="13.5" width="5" height="5"/>
      <path class="cls-1" d="m625,18.5v-5h-45v5h-9.31l-.38.38,12.4,19.62h2.29v-5h5v5h25v-10h-5v-5h-5v-5h5v5h5v-5h10Zm-25,10h-5v-5h5v5Z"/>
      <rect class="cls-1" x="645" y="28.5" width="5" height="5"/>
      <rect class="cls-1" x="635" y="33.5" width="10" height="5"/>
      <polygon class="cls-1" points="625 28.5 625 23.5 620 23.5 620 23.5 615 23.5 615 28.5 620 28.5 620 28.5 620 28.5 620 33.5 635 33.5 635 28.5 625 28.5"/>
      <rect class="cls-1" x="630" y="18.5" width="5" height="5"/>
      <path class="cls-1" d="m469.96,43.77l-14.06-35.41,7.36-6.43v-.93h-38.2v.93l7.36,6.43-14.32,35.41-4.42,3.64-4.2-3.64V8.36l7.43-6.43v-.93h-33.42v.93l5.57,6.43v13.13h-13.66v-13.13l5.57-6.43v-.93h-33.42v.93l7.43,6.43v35.41l-7.43,6.43v.8h33.42v-.8l-5.57-6.43v-14.12h13.66v14.12l-5.57,6.43v.8h57.03v-.8l-7.03-6.43,1.86-5.7h12.27l1.92,5.7-6.5,6.43v.8h34.42v-.8l-7.49-6.43Zm-32.36-12.93l3.65-11.54,3.91,11.54h-7.56Z"/>
      <polygon class="cls-1" points="563.94 18.18 573.76 8.36 584.04 1.93 584.04 1 554.13 1 554.13 1.86 561.16 8.29 546.04 23.94 546.04 8.29 551.61 1.86 551.61 1 521.04 1 521.04 1.8 525.61 7.83 525.61 43.71 518.19 50.14 518.19 51 551.61 51 551.61 50.2 546.04 43.77 546.04 34.95 550.48 30.91 558.77 43.77 554.13 50.2 554.13 51 587.55 51 587.55 50.2 580.12 43.77 563.94 18.18"/>
      <path class="cls-1" d="m519.36,34.54c0-1.77-.26-3.55-.85-5.45h-6.29v1.25c0,6.89-4.09,11.69-12.29,11.69-5.97,0-9.45-4.92-9.45-15.56s3.55-16.02,9.52-16.02,11.03,3.48,16.09,11.75h.92V1h-.92l-5.63,6.71c-2.95-4.07-7.76-7.71-14.65-7.71-12.21,0-26.39,9.85-26.39,26s13.52,26,28.3,26c13.33,0,21.67-7.62,21.67-17.46Z"/>
      <path class="cls-1" d="m171.63,43.77l-14.05-35.41,7.36-6.43v-.93h-38.18v.93l7.36,6.43-14.32,35.41-4.58,3.76v-18.95h-.93l-11.8,11.41h-12.26V8.36l7.36-6.43v-.93h-35.13v.93l7.36,6.43v35.41l-7.36,6.43v.8h79.75v-.8l-7.03-6.43,1.86-5.7h12.26l1.92,5.7-6.5,6.43v.8h34.4v-.8l-7.49-6.43Zm-32.35-12.93l3.65-11.54,3.91,11.54h-7.56Z"/>
      <polygon class="cls-1" points="226.89 1 171.07 1 171.07 24.34 172 24.34 183.34 12.01 188.77 12.01 188.77 43.77 181.35 50.2 181.35 51 216.61 51 216.61 50.2 209.19 43.77 209.19 12.01 214.62 12.01 225.96 24.34 226.89 24.34 226.89 1"/>
      <polygon class="cls-1" points="257.23 43.77 257.23 8.36 264.66 1.93 264.66 1 229.39 1 229.39 1.93 236.75 8.36 236.75 43.77 229.39 50.2 229.39 51 264.66 51 264.66 50.2 257.23 43.77"/>
      <polygon class="cls-1" points="310.84 25.34 290.69 1 266.16 1 266.16 1.86 273.52 8.29 273.52 43.77 266.16 50.2 266.16 51 295.2 51 295.2 50.2 287.77 43.77 287.77 26.66 307.92 51 332.45 51 332.45 50.2 325.03 43.77 325.03 8.36 332.45 1.93 332.45 1 303.42 1 303.42 1.86 310.84 8.29 310.84 25.34"/>
    </g>
  </g>
</svg>