<?xml version="1.0" encoding="UTF-8"?>
<svg id="Layer_2" data-name="Layer 2" xmlns="http://www.w3.org/2000/svg" viewBox="0 0 375 61.73">
  <defs>
    <style>
      .cls-1 {
        fill: lime;
      }

      .cls-2 {
        fill: #ff2670;
      }

      .cls-3, .cls-4 {
        fill: #fff;
      }

      .cls-4 {
        fill-rule: evenodd;
      }
    </style>
  </defs>
  <g id="Layer_5" data-name="Layer 5">
    <g>
      <g>
        <path class="cls-1" d="m31.73,10.67v-2.88h-11.54v2.88h5.77v5.77h-2.88v-2.88h-2.88v-2.88h-8.65v2.88h5.77v5.77h5.77v2.88h2.88v-2.88h2.88v2.88h8.54v-11.54h-5.66Zm0,8.65v-2.88h2.88v2.88h-2.88Z"/>
        <rect class="cls-1" x="14.42" y="19.33" width="2.88" height="2.88"/>
        <rect class="cls-1" x="2.88" y="19.33" width="2.88" height="2.88"/>
        <rect class="cls-1" x="5.77" y="10.67" width="2.88" height="2.88"/>
        <rect class="cls-1" y="10.67" width="2.88" height="2.88"/>
        <rect class="cls-1" x="5.77" y="16.44" width="5.77" height="2.88"/>
        <rect class="cls-1" x="8.65" y="7.79" width="2.88" height="2.88"/>
        <path class="cls-1" d="m360.58,10.67v-2.88h-25.96v2.88h-5.37l-.22.22,7.15,11.32h1.32v-2.88h2.88v2.88h14.42v-5.77h-2.88v-2.88h-2.88v-2.88h2.88v2.88h2.88v-2.88h5.77Zm-14.42,5.77h-2.88v-2.88h2.88v2.88Z"/>
        <rect class="cls-1" x="372.12" y="16.44" width="2.88" height="2.88"/>
        <rect class="cls-1" x="366.35" y="19.33" width="5.77" height="2.88"/>
        <polygon class="cls-1" points="360.58 16.44 360.58 13.56 357.69 13.56 357.69 13.56 354.81 13.56 354.81 16.44 357.69 16.44 357.69 16.44 357.69 16.44 357.69 19.33 366.35 19.33 366.35 16.44 360.58 16.44"/>
        <rect class="cls-1" x="363.46" y="10.67" width="2.88" height="2.88"/>
        <path class="cls-1" d="m271.13,25.25l-8.11-20.43,4.25-3.71v-.54h-22.04v.54l4.25,3.71-8.26,20.43-2.55,2.1-2.42-2.1V4.82l4.28-3.71v-.54h-19.28v.54l3.21,3.71v7.57h-7.88v-7.57l3.21-3.71v-.54h-19.28v.54l4.28,3.71v20.43l-4.28,3.71v.46h19.28v-.46l-3.21-3.71v-8.15h7.88v8.15l-3.21,3.71v.46h32.9v-.46l-4.06-3.71,1.07-3.29h7.08l1.11,3.29-3.75,3.71v.46h19.86v-.46l-4.32-3.71Zm-18.67-7.46l2.1-6.66,2.26,6.66h-4.36Z"/>
        <polygon class="cls-1" points="325.35 10.49 331.01 4.82 336.94 1.11 336.94 .58 319.69 .58 319.69 1.07 323.74 4.79 315.02 13.81 315.02 4.79 318.24 1.07 318.24 .58 300.6 .58 300.6 1.04 303.24 4.52 303.24 25.21 298.95 28.93 298.95 29.42 318.24 29.42 318.24 28.96 315.02 25.25 315.02 20.16 317.59 17.83 322.37 25.25 319.69 28.96 319.69 29.42 338.97 29.42 338.97 28.96 334.69 25.25 325.35 10.49"/>
        <path class="cls-1" d="m299.63,19.92c0-1.02-.15-2.05-.49-3.14h-3.63v.72c0,3.98-2.36,6.74-7.09,6.74-3.45,0-5.45-2.84-5.45-8.98s2.05-9.24,5.49-9.24,6.36,2.01,9.28,6.78h.53V.58h-.53l-3.25,3.87c-1.7-2.35-4.48-4.45-8.45-4.45-7.05,0-15.23,5.68-15.23,15s7.8,15,16.33,15c7.69,0,12.5-4.39,12.5-10.08Z"/>
        <path class="cls-1" d="m99.02,25.25l-8.11-20.43,4.24-3.71v-.54h-22.03v.54l4.25,3.71-8.26,20.43-2.64,2.17v-10.93h-.54l-6.81,6.58h-7.07V4.82l4.24-3.71v-.54h-20.27v.54l4.25,3.71v20.43l-4.25,3.71v.46h46.01v-.46l-4.05-3.71,1.07-3.29h7.07l1.11,3.29-3.75,3.71v.46h19.85v-.46l-4.32-3.71Zm-18.66-7.46l2.1-6.66,2.26,6.66h-4.36Z"/>
        <polygon class="cls-1" points="130.9 .58 98.7 .58 98.7 14.04 99.23 14.04 105.77 6.93 108.91 6.93 108.91 25.25 104.62 28.96 104.62 29.42 124.97 29.42 124.97 28.96 120.69 25.25 120.69 6.93 123.82 6.93 130.36 14.04 130.9 14.04 130.9 .58"/>
        <polygon class="cls-1" points="148.4 25.25 148.4 4.82 152.69 1.11 152.69 .58 132.34 .58 132.34 1.11 136.59 4.82 136.59 25.25 132.34 28.96 132.34 29.42 152.69 29.42 152.69 28.96 148.4 25.25"/>
        <polygon class="cls-1" points="179.33 14.62 167.7 .58 153.55 .58 153.55 1.07 157.8 4.79 157.8 25.25 153.55 28.96 153.55 29.42 170.31 29.42 170.31 28.96 166.02 25.25 166.02 15.38 177.65 29.42 191.8 29.42 191.8 28.96 187.51 25.25 187.51 4.82 191.8 1.11 191.8 .58 175.05 .58 175.05 1.07 179.33 4.79 179.33 14.62"/>
      </g>
      <g>
        <g>
          <path class="cls-4" d="m220.28,58.32l1.06-5c.58.07,1.35.13,2.41.13,2.48,0,4.5-.68,5.9-1.88,1.41-1.2,2.19-2.92,2.19-4.97,0-1.4-.37-2.57-1.07-3.48-.7-.91-1.72-1.56-3.01-1.91-.75-.2-1.59-.31-2.51-.31-.97,0-2.88.26-4.03.46h-.07s-3.61,16.97-3.61,16.97h2.75Zm3.35-7.4c-.37,0-.71,0-1.01-.02-.27-.01-.52-.03-.76-.06l1.55-7.26c.49-.07,1.19-.16,1.9-.16.44,0,.84.04,1.21.1.7.13,1.26.39,1.67.75.63.54.95,1.34.95,2.34,0,1.29-.46,2.36-1.38,3.11-.91.75-2.29,1.19-4.14,1.19Z"/>
          <path class="cls-3" d="m244.46,58.32l3.65-17.11h-2.75l-3.65,17.11h2.75,0Z"/>
          <path class="cls-4" d="m279.13,47.38l1.33-6.18h2.75l-2.41,11.22c-.21.98-.4,2.1-.4,2.76,0,.27.04.48.11.61.03.07.08.11.12.14.05.03.11.05.18.05.1,0,.22-.05.37-.14.14-.1.3-.24.46-.41.32-.34.64-.78.94-1.23,0-.06,0-.11,0-.17,0-1.84.66-3.72,1.79-5.14,1.14-1.43,2.76-2.4,4.7-2.4,1.34,0,2.42.47,3.16,1.28.74.81,1.13,1.94,1.13,3.24,0,3.12-1.87,6.37-4.79,7.3-.54.17-1.11.26-1.71.26s-1.14-.09-1.62-.27c-.84-.3-1.5-.84-1.95-1.56-.56.71-1.19,1.25-1.89,1.55-.4.17-.84.27-1.28.27s-.84-.09-1.18-.27c-.71-.38-1.13-1.16-1.18-2.24-.63,1.03-1.47,1.85-2.55,2.25-.47.17-.97.26-1.52.26-.51,0-.99-.09-1.41-.27-.89-.36-1.55-1.07-1.94-1.97-.59.98-1.23,1.63-1.96,1.96-.39.18-.81.27-1.23.27s-.8-.09-1.12-.27c-.68-.38-1.07-1.13-1.14-2.09-.58.94-1.37,1.71-2.39,2.1-.46.17-.96.27-1.5.27-.51,0-.99-.09-1.42-.27-.53-.22-.95-.57-1.27-1.01-.57.57-1.24.98-1.95,1.2-.8.25-1.67.26-2.49-.08-.83-.34-1.49-1-1.9-1.88-.21-.45-.43-.98-.64-1.5-.06-.14-.12-.29-.17-.43-.13-.31-.25-.61-.38-.9-.3.06-.58.1-.85.13l-.96,4.49h-2.84l3.67-17.2h2.84l-2.03,9.54c1.43-.42,3.4-1.6,4.76-4.51l2.68,1.28c-1.25,2.69-2.99,4.34-4.68,5.29.12.28.24.55.34.81.07.17.14.34.2.5.2.5.37.92.55,1.29.15.32.33.45.47.51.15.06.36.08.64,0,.56-.17,1.3-.79,1.67-1.97l.27-1.19c.11-.78.3-1.5.55-2.02,1.2-2.51,3.6-4.21,6.26-4.21.86,0,1.77.21,2.56.53.79.32,1.47.74,1.9,1.19l.04.04v.06c-.1.37-.2.83-.32,1.33-.19.81-.4,1.73-.6,2.62-.16.71-.3,1.4-.4,1.97-.1.58-.17,1.03-.17,1.28,0,.19.04.33.1.41.06.08.13.12.24.12.15,0,.33-.08.54-.28.21-.19.43-.48.66-.87.47-.77.98-1.89,1.53-3.31,1-3.04,3.58-5.04,6.15-5.04,1.18,0,2.01.35,2.59.9h0Zm-13.84,4.06l.5-2.13c-.47-.28-1-.47-1.68-.47-1.18,0-2.22.66-2.97,1.64-.75.98-1.2,2.28-1.2,3.52,0,.63.15,1.14.42,1.49.27.35.67.55,1.2.55.79,0,1.55-.4,2.19-1.19.65-.78,1.18-1.94,1.52-3.43h0Zm13.23-1.27l.13-.63c-.48-.37-1.12-.65-1.97-.65-1.13,0-2.13.64-2.85,1.61-.72.97-1.15,2.25-1.15,3.51,0,.66.15,1.17.42,1.51.26.34.64.53,1.14.53.9,0,1.78-.58,2.54-1.62.75-1.04,1.37-2.51,1.75-4.26h0Zm7.23,5.26c.29.38.74.62,1.4.62.95,0,1.81-.63,2.45-1.56.63-.94,1.03-2.16,1.03-3.31,0-.62-.14-1.16-.43-1.55-.29-.38-.74-.62-1.4-.62-.95,0-1.81.63-2.45,1.57-.63.94-1.03,2.16-1.03,3.3,0,.62.14,1.16.43,1.55Z"/>
          <path class="cls-3" d="m302.7,55.09l-.06.09c-.5.74-1.19,1.58-1.66,1.99-.38.34-.82.66-1.3.9-.58.3-1.23.49-1.93.49-.59,0-1.1-.11-1.53-.3-1.17-.53-1.71-1.72-1.71-3.17,0-.57.06-1.13.14-1.57h0s0-.01,0-.01c.03-.15.05-.29.08-.41l.85-3.99h-1.88l.51-2.4h1.87l1-4.62h2.75l-1,4.62h3.33l-.51,2.4h-3.34l-.86,4.08s0,.02,0,.03h0s0,0,0,0c0,0,0,.02,0,.03h0c-.11.58-.2,1.1-.2,1.53,0,.39.08.7.22.9.14.2.34.31.62.31.31,0,.6-.11.92-.34.32-.23.67-.58,1.11-1.03.03-.04.25-.3.48-.59l.19-.23,1.94,1.29Z"/>
          <path class="cls-4" d="m237.52,46.48c-1.94,0-3.57.97-4.7,2.4-1.14,1.43-1.79,3.31-1.79,5.14,0,2.05.96,3.67,2.67,4.28.48.17,1.02.26,1.62.26s1.17-.09,1.7-.26c2.92-.93,4.8-4.19,4.8-7.3,0-1.3-.39-2.44-1.13-3.24-.74-.81-1.81-1.28-3.16-1.28Zm-1.92,9.57c-.66,0-1.11-.24-1.4-.62-.29-.38-.43-.93-.43-1.55,0-1.14.39-2.36,1.03-3.3.64-.94,1.5-1.57,2.45-1.57.66,0,1.11.24,1.4.62.29.38.43.93.43,1.55,0,1.15-.39,2.38-1.03,3.31-.64.94-1.5,1.56-2.45,1.56Z"/>
          <path class="cls-2" d="m201.98,42.77c2.36,0,4.28-1.13,4.28-2.52s-1.91-2.52-4.28-2.52-4.28,1.13-4.28,2.52,1.91,2.52,4.28,2.52Z"/>
          <path class="cls-2" d="m201.98,61.73c2.36,0,4.28-1.13,4.28-2.52s-1.91-2.52-4.28-2.52-4.28,1.13-4.28,2.52,1.91,2.52,4.28,2.52Z"/>
          <path class="cls-2" d="m196.02,46.25c1.18-2.07,1.17-4.31-.02-5.01-1.19-.7-3.11.42-4.29,2.49-1.18,2.07-1.17,4.31.02,5.01,1.19.7,3.11-.42,4.29-2.49Z"/>
          <path class="cls-2" d="m212.25,55.73c1.18-2.07,1.17-4.31-.02-5.01-1.19-.7-3.11.42-4.29,2.49s-1.17,4.31.02,5.01c1.19.7,3.11-.42,4.29-2.49Z"/>
          <path class="cls-2" d="m196.01,58.22c1.19-.7,1.2-2.94.02-5.01-1.18-2.07-3.1-3.18-4.29-2.49-1.19.7-1.2,2.94-.02,5.01,1.18,2.07,3.1,3.18,4.29,2.49Z"/>
          <path class="cls-2" d="m212.23,48.74c1.19-.7,1.2-2.94.02-5.01-1.18-2.07-3.1-3.18-4.29-2.49-1.19.7-1.2,2.94-.02,5.01,1.18,2.07,3.1,3.18,4.29,2.49Z"/>
        </g>
        <g>
          <path class="cls-3" d="m79.47,44.98h-6.48v8.64h3.28v-2.05h3.2c1.29,0,2.19-.29,2.72-.88.52-.59.78-1.39.78-2.42s-.26-1.81-.78-2.4c-.52-.59-1.43-.89-2.72-.89Zm-.02,4.21c-.19.16-.47.23-.86.23h-2.32v-2.3h2.32c.38,0,.67.08.86.24.19.16.28.46.28.91s-.09.76-.28.92Z"/>
          <path class="cls-3" d="m89.4,44.91c-1.86,0-3.26.38-4.19,1.14-.93.76-1.4,1.84-1.4,3.26s.47,2.51,1.4,3.27c.93.76,2.33,1.14,4.19,1.14s3.26-.38,4.19-1.14c.93-.76,1.4-1.85,1.4-3.27s-.46-2.5-1.4-3.26-2.33-1.14-4.19-1.14Zm1.69,6.22c-.42.29-.99.44-1.69.44s-1.27-.15-1.69-.44c-.42-.29-.63-.9-.63-1.83s.21-1.54.63-1.83.99-.43,1.69-.43,1.27.14,1.69.43.63.89.63,1.83-.21,1.53-.63,1.83Z"/>
          <polygon class="cls-3" points="107.11 51.13 105.71 44.98 101.15 44.98 99.76 51.11 98.68 44.98 95.1 44.98 97.09 53.62 102.13 53.62 103.43 47.2 104.71 53.62 109.77 53.62 111.85 44.98 108.27 44.98 107.11 51.13"/>
          <polygon class="cls-3" points="112.84 53.62 121.56 53.62 121.56 51.48 116.12 51.48 116.12 50.3 121.08 50.3 121.08 48.29 116.12 48.29 116.12 47.13 121.56 47.13 121.56 44.98 112.84 44.98 112.84 53.62"/>
          <path class="cls-3" d="m132.19,49.92c.56-.49.84-1.18.84-2.07s-.26-1.6-.79-2.11c-.53-.51-1.35-.76-2.46-.76h-6.81v8.64h3.28v-2.96h1.36l2.07,2.96h3.63l-2.4-3.1c.53-.12.97-.31,1.29-.6Zm-5.94-2.79h2.52c.35,0,.61.06.76.19s.23.32.23.59-.08.47-.23.59-.4.18-.76.18h-2.52v-1.56Z"/>
          <polygon class="cls-3" points="134.19 53.62 142.91 53.62 142.91 51.48 137.47 51.48 137.47 50.3 142.43 50.3 142.43 48.29 137.47 48.29 137.47 47.13 142.91 47.13 142.91 44.98 134.19 44.98 134.19 53.62"/>
          <path class="cls-3" d="m150.5,44.98h-6.18v8.64h6.18c1.42,0,2.49-.34,3.21-1.01.72-.67,1.08-1.78,1.08-3.31s-.36-2.64-1.08-3.31c-.72-.67-1.79-1-3.21-1Zm.58,6.11c-.3.26-.76.38-1.4.38h-2.09v-4.35h2.09c.63,0,1.1.13,1.4.38.3.25.45.85.45,1.79s-.15,1.54-.45,1.8Z"/>
          <path class="cls-3" d="m168.4,49.12c.55-.02,1-.22,1.32-.59.33-.37.49-.84.49-1.41s-.21-1.1-.64-1.51c-.42-.41-1.34-.62-2.74-.62h-6.52v8.64h6.89c1.41,0,2.32-.22,2.73-.67.41-.45.61-1.03.61-1.75,0-.66-.22-1.17-.66-1.52-.44-.35-.94-.54-1.49-.56Zm-4.8-2h2.62c.29,0,.47.04.55.13.08.09.12.22.12.42s-.04.34-.12.44c-.08.1-.27.16-.55.16h-2.62v-1.15Zm3.56,4.21c-.08.1-.3.15-.65.15h-2.91v-1.4h2.91c.35,0,.57.05.65.16.08.11.12.29.12.55s-.04.43-.12.53Z"/>
          <polygon class="cls-3" points="183.11 44.98 179.49 44.98 177 48.17 174.48 44.98 170.87 44.98 175.37 50.38 175.37 53.62 178.63 53.62 178.63 50.38 183.11 44.98"/>
        </g>
      </g>
    </g>
  </g>
</svg>