<?xml version="1.0" encoding="UTF-8"?>
<svg id="Capa_2" data-name="Capa 2" xmlns="http://www.w3.org/2000/svg" viewBox="0 0 185.77 22.48">
  <defs>
    <style>
      .cls-1 {
        fill: #fff;
      }
    </style>
  </defs>
  <g id="site">
    <g>
      <path class="cls-1" d="M7.38,22.13l7.38-7.38,7.38,7.38,7.38-7.38,7.38,7.38,7.38-7.38L29.5,0l-7.38,7.38L14.75,0,0,14.75l7.38,7.38Z"/>
      <path class="cls-1" d="M54.34,22.3h3.41V6.47l6.45,15.83h2.98l6.45-15.83v15.83h3.41V.79h-4.49l-6.76,16.93L58.92.79h-4.58v21.51ZM87.51,22.48c3.9,0,6.55-2.37,7.1-5.47h-3.32c-.46,1.75-1.94,2.77-3.96,2.77-2.61,0-4.3-1.75-4.39-4.43v-.22h11.86c.06-.43.09-.86.09-1.26-.09-4.61-3.13-7.5-7.68-7.5s-7.74,3.23-7.74,8.08,3.1,8.02,8.05,8.02ZM83.05,12.71c.25-2.24,2.06-3.66,4.18-3.66,2.3,0,3.93,1.32,4.21,3.66h-8.39ZM97.97,18.03c0,2.86,1.29,4.27,4.3,4.27h3.07v-2.92h-2.34c-1.26,0-1.69-.46-1.69-1.69v-8.2h3.84v-2.92h-3.84V2.17h-3.35v4.39h-2.73v2.92h2.73v8.54ZM121.04,19.41c-.68,0-1.01-.22-1.01-1.01v-6.3c0-3.72-2.4-5.72-6.58-5.72-3.96,0-6.61,1.91-6.94,4.98h3.26c.25-1.38,1.57-2.3,3.53-2.3,2.18,0,3.44,1.08,3.44,2.83v.95h-3.96c-4.39,0-6.73,1.81-6.73,5.04,0,2.92,2.4,4.61,5.84,4.61,2.55,0,4.15-1.11,5.19-2.7,0,1.57.74,2.52,2.89,2.52h1.75v-2.89h-.68ZM116.74,15.85c-.03,2.43-1.63,4.06-4.39,4.06-1.81,0-2.92-.92-2.92-2.24,0-1.6,1.14-2.37,3.2-2.37h4.12v.55ZM130.5,22.3h3.53v-7.81h4.95c4.49,0,7.44-2.7,7.44-6.85s-2.95-6.85-7.44-6.85h-8.48v21.51ZM138.7,3.86c2.52,0,4.12,1.44,4.12,3.78s-1.63,3.78-4.15,3.78h-4.64V3.86h4.67ZM154.87,22.48c4.79,0,8.02-3.23,8.02-8.05s-3.23-8.05-8.02-8.05-8.02,3.26-8.02,8.05,3.23,8.05,8.02,8.05ZM154.87,19.66c-2.8,0-4.61-2.18-4.61-5.22s1.81-5.22,4.61-5.22,4.64,2.18,4.64,5.22-1.84,5.22-4.64,5.22ZM172.38,22.48c4.79,0,8.02-3.23,8.02-8.05s-3.23-8.05-8.02-8.05-8.02,3.26-8.02,8.05,3.23,8.05,8.02,8.05ZM172.38,19.66c-2.8,0-4.61-2.18-4.61-5.22s1.81-5.22,4.61-5.22,4.64,2.18,4.64,5.22-1.84,5.22-4.64,5.22ZM182.45,22.3h3.32V.79h-3.32v21.51Z"/>
    </g>
  </g>
</svg>