<?xml version="1.0" encoding="UTF-8"?>
<svg id="Capa_2" data-name="Capa 2" xmlns="http://www.w3.org/2000/svg" viewBox="0 0 150.68 28.28">
  <defs>
    <style>
      .cls-1, .cls-2 {
        fill: #fff;
      }

      .cls-2 {
        fill-rule: evenodd;
      }
    </style>
  </defs>
  <g id="site">
    <g>
      <path class="cls-2" d="M22.05,19.09c.95.41,2.16,0,2.57-1.08l5.95-15.4c.68-1.89-1.62-3.51-3.11-2.03l-12.43,12.43c-.54.54-1.22.68-1.89.54l-5.67-1.49c-.95-.27-1.89.27-2.3,1.08L.16,24.77c-.81,1.89,1.62,3.51,3.11,2.16l10.67-10.13c.54-.54,1.35-.68,2.03-.41l6.08,2.7Z"/>
      <path class="cls-1" d="M134.47,28.28V7.61h3.92v2.03h.14c.41-.81,2.16-2.3,4.86-2.3,3.51,0,7.3,2.57,7.3,7.84s-3.78,7.84-7.3,7.84c-2.7,0-4.46-1.49-4.86-2.3h-.14v7.57h-3.92ZM138.25,15.17c0,2.84,2.03,4.32,4.19,4.32s4.19-1.49,4.19-4.32-2.03-4.32-4.19-4.32c-2.16-.14-4.19,1.49-4.19,4.32Z"/>
      <path class="cls-1" d="M117.85,22.74v-8.65c0-2.16-1.08-3.38-2.84-3.38s-2.97,1.22-2.97,3.38v8.65h-3.92V7.61h3.92v1.89c.81-1.22,2.16-2.3,4.32-2.3,1.89,0,3.51.81,4.46,2.57.81-1.35,2.57-2.57,5-2.57,3.24,0,5.54,2.03,5.54,6.62v8.78h-3.78v-8.65c0-2.16-1.08-3.38-2.84-3.38s-2.97,1.22-2.97,3.38v8.65h-3.92v.14Z"/>
      <path class="cls-1" d="M96.5,23.01c-3.51,0-7.3-2.57-7.3-7.84s3.78-7.84,7.3-7.84c2.7,0,4.46,1.49,4.86,2.3h.14v-2.03h3.92v15.13h-3.92v-2.03h-.14c-.41.81-2.16,2.3-4.86,2.3ZM92.99,15.17c0,2.84,2.03,4.32,4.19,4.32s4.19-1.49,4.19-4.32-2.03-4.32-4.19-4.32c-2.16-.14-4.19,1.49-4.19,4.32Z"/>
      <path class="cls-1" d="M78.39,22.74V7.61h3.92v3.92c.54-2.43,2.03-4.32,4.73-4.32.41,0,.68,0,1.08.14v3.78c-.41,0-.68-.14-.95-.14-2.97,0-4.73,2.03-4.73,5.13v6.62h-4.05Z"/>
      <path class="cls-1" d="M68.94,6.53c0-4.46,3.11-5.13,5.13-5.13.81,0,1.89.14,2.7.54v3.11c-.68-.41-1.49-.27-1.76-.27-1.49,0-2.16.81-2.16,2.3v.54h3.92v3.11h-3.92v12.03h-3.92v-12.03h-1.89v-3.11h1.89v-1.08Z"/>
      <path class="cls-1" d="M57.72,6.53c0-4.46,3.11-5.13,5.13-5.13.81,0,1.89.14,2.7.54v3.11c-.68-.41-1.49-.27-1.76-.27-1.49,0-2.16.81-2.16,2.3v.54h3.92v3.11h-3.92v12.03h-3.92v-12.03h-1.89v-3.11h1.89v-1.08Z"/>
      <path class="cls-1" d="M46.64,23.01c-3.92,0-7.97-2.7-7.97-7.84s4.05-7.84,7.97-7.84,7.97,2.7,7.97,7.84-4.05,7.84-7.97,7.84ZM42.45,15.17c0,2.7,1.89,4.32,4.19,4.32s4.05-1.62,4.05-4.32-1.89-4.32-4.05-4.32-4.19,1.62-4.19,4.32Z"/>
    </g>
  </g>
</svg>