<?xml version="1.0" encoding="UTF-8"?>
<svg id="Capa_2" data-name="Capa 2" xmlns="http://www.w3.org/2000/svg" viewBox="0 0 233.05 50">
  <defs>
    <style>
      .cls-1, .cls-2 {
        fill: #fff;
      }

      .cls-2 {
        fill-rule: evenodd;
      }

      .cls-3 {
        fill: #ff2670;
      }
    </style>
  </defs>
  <g id="site">
    <g>
      <path class="cls-2" d="M61.35,42.89l2.22-10.43c1.22.14,2.81.28,5.01.28,5.16,0,9.37-1.41,12.3-3.91,2.93-2.5,4.55-6.08,4.55-10.36,0-2.91-.78-5.35-2.24-7.25-1.46-1.9-3.59-3.25-6.28-3.98-1.56-.43-3.31-.64-5.22-.64-2.03,0-5.99.54-8.39.95l-.15.03-7.53,35.32h5.72ZM68.33,27.48c-.78,0-1.47-.01-2.1-.04-.56-.03-1.08-.07-1.58-.13l3.23-15.13c1.03-.15,2.48-.33,3.97-.33.92,0,1.76.07,2.51.22,1.46.28,2.62.81,3.49,1.56,1.31,1.13,1.99,2.79,1.99,4.88,0,2.69-.96,4.91-2.86,6.48-1.91,1.57-4.78,2.48-8.63,2.48Z"/>
      <path class="cls-1" d="M111.71,42.89l7.6-35.66h-5.72l-7.6,35.66h5.72,0Z"/>
      <path class="cls-2" d="M183.96,20.11l2.77-12.88h5.73l-5.02,23.37c-.45,2.05-.84,4.37-.84,5.74,0,.56.07.99.22,1.27.07.14.16.23.26.3.1.06.22.1.38.1.21,0,.47-.1.77-.3.3-.2.63-.49.96-.85.66-.7,1.34-1.63,1.95-2.56,0-.12,0-.23,0-.35,0-3.82,1.37-7.75,3.74-10.72,2.37-2.97,5.76-5,9.8-5,2.8,0,5.04.98,6.58,2.67,1.54,1.68,2.36,4.04,2.36,6.76,0,6.49-3.89,13.27-9.98,15.22-1.12.36-2.32.55-3.55.55s-2.37-.19-3.38-.55c-1.74-.62-3.12-1.75-4.06-3.24-1.17,1.48-2.48,2.61-3.94,3.24-.84.36-1.75.56-2.68.56s-1.75-.19-2.45-.57c-1.48-.8-2.35-2.41-2.46-4.67-1.31,2.14-3.07,3.85-5.32,4.68-.97.36-2.02.55-3.17.55-1.07,0-2.05-.19-2.94-.56-1.85-.75-3.22-2.22-4.03-4.09-1.23,2.03-2.57,3.39-4.08,4.09-.81.38-1.68.56-2.56.56s-1.67-.2-2.33-.57c-1.41-.8-2.23-2.36-2.38-4.35-1.22,1.97-2.85,3.57-4.97,4.37-.95.36-1.99.55-3.13.55-1.07,0-2.06-.19-2.95-.55-1.11-.45-1.98-1.19-2.65-2.11-1.19,1.18-2.58,2.05-4.07,2.51-1.66.51-3.48.53-5.18-.17-1.72-.71-3.1-2.08-3.97-3.91-.45-.94-.9-2.05-1.33-3.12-.12-.3-.24-.6-.36-.89-.26-.64-.53-1.27-.8-1.88-.62.13-1.21.21-1.77.27l-1.99,9.35h-5.91l7.64-35.84h5.91l-4.24,19.87c2.98-.87,7.09-3.32,9.91-9.39l5.59,2.67c-2.61,5.6-6.22,9.04-9.76,11.03.26.58.49,1.15.72,1.69.15.36.29.71.42,1.03.42,1.03.77,1.92,1.14,2.68.32.67.69.94.97,1.05.3.13.75.17,1.33,0,1.17-.36,2.72-1.65,3.48-4.11l.56-2.48c.22-1.63.63-3.12,1.15-4.21,2.5-5.23,7.5-8.77,13.03-8.77,1.8,0,3.68.44,5.33,1.09,1.64.66,3.07,1.55,3.95,2.47l.09.09-.03.12c-.18.78-.4,1.72-.64,2.76-.39,1.68-.84,3.61-1.24,5.45-.33,1.49-.62,2.92-.84,4.11-.22,1.2-.35,2.14-.35,2.67,0,.4.08.68.21.86.12.17.28.26.5.26.32,0,.69-.17,1.12-.58.43-.4.89-1.01,1.38-1.8.98-1.6,2.05-3.94,3.18-6.89,2.09-6.34,7.45-10.51,12.82-10.51,2.47,0,4.18.74,5.41,1.87h0ZM155.13,28.56l1.05-4.43c-.98-.58-2.08-.98-3.5-.98-2.46,0-4.62,1.37-6.18,3.42-1.56,2.05-2.49,4.74-2.49,7.34,0,1.31.31,2.38.88,3.11.57.73,1.4,1.15,2.5,1.15,1.65,0,3.22-.84,4.57-2.47,1.35-1.63,2.46-4.04,3.18-7.14h0ZM182.68,25.91l.27-1.31c-.99-.78-2.34-1.36-4.1-1.36-2.36,0-4.43,1.33-5.93,3.35-1.5,2.01-2.4,4.69-2.4,7.31,0,1.37.31,2.43.87,3.15.55.71,1.34,1.11,2.37,1.11,1.88,0,3.71-1.21,5.28-3.37,1.57-2.16,2.86-5.23,3.65-8.88h0ZM197.74,36.88c.61.79,1.55,1.29,2.92,1.29,1.97,0,3.78-1.31,5.11-3.26,1.32-1.95,2.14-4.5,2.14-6.9,0-1.29-.29-2.42-.91-3.22-.6-.79-1.55-1.29-2.92-1.29-1.97,0-3.78,1.32-5.1,3.28-1.32,1.95-2.14,4.51-2.14,6.88,0,1.29.29,2.42.9,3.22Z"/>
      <path class="cls-1" d="M233.05,36.17l-.13.19c-1.05,1.55-2.48,3.28-3.45,4.15-.79.71-1.71,1.37-2.71,1.89-1.21.62-2.57,1.02-4.02,1.02-1.23,0-2.3-.22-3.19-.63-2.43-1.11-3.57-3.59-3.57-6.59,0-1.19.13-2.35.29-3.26h0s0-.03,0-.03c.06-.32.11-.61.16-.86l1.77-8.31h-3.92l1.07-5.01h3.89l2.08-9.63h5.72l-2.09,9.63h6.93l-1.07,5.01h-6.96l-1.79,8.51s0,.04-.01.05h0s0,0,0,0c0,.02,0,.04-.01.06h0v.02c-.24,1.2-.42,2.27-.42,3.16,0,.82.17,1.46.47,1.88.29.41.71.64,1.29.64.66,0,1.25-.24,1.92-.72.67-.49,1.4-1.21,2.32-2.16.07-.08.52-.63,1.01-1.23l.39-.48,4.03,2.69Z"/>
      <path class="cls-2" d="M97.27,18.24c-4.04,0-7.43,2.03-9.8,5-2.37,2.97-3.74,6.89-3.74,10.72,0,4.28,1.99,7.65,5.57,8.92,1.01.36,2.14.55,3.37.55s2.43-.19,3.55-.55c6.09-1.95,9.99-8.72,9.99-15.22,0-2.72-.82-5.08-2.36-6.76-1.54-1.68-3.78-2.67-6.58-2.67ZM93.26,38.17c-1.37,0-2.32-.5-2.92-1.29-.61-.8-.9-1.93-.9-3.22,0-2.37.81-4.93,2.14-6.88,1.33-1.96,3.13-3.28,5.1-3.28,1.37,0,2.32.5,2.92,1.29.61.8.9,1.93.9,3.22,0,2.4-.81,4.95-2.14,6.9-1.33,1.95-3.13,3.26-5.1,3.26Z"/>
      <path class="cls-3" d="M23.22,10.49c4.92,0,8.91-2.35,8.91-5.25S28.14,0,23.22,0s-8.91,2.35-8.91,5.25,3.99,5.25,8.91,5.25Z"/>
      <path class="cls-3" d="M23.22,50c4.92,0,8.91-2.35,8.91-5.25s-3.99-5.25-8.91-5.25-8.91,2.35-8.91,5.25,3.99,5.25,8.91,5.25Z"/>
      <path class="cls-3" d="M10.81,17.75c2.46-4.31,2.44-8.98-.03-10.43-2.48-1.45-6.48.87-8.94,5.18-2.46,4.31-2.44,8.98.03,10.43,2.48,1.45,6.48-.87,8.94-5.18Z"/>
      <path class="cls-3" d="M44.62,37.5c2.46-4.31,2.44-8.98-.04-10.43-2.48-1.45-6.48.87-8.94,5.18-2.46,4.31-2.44,8.98.04,10.43,2.48,1.45,6.48-.87,8.94-5.18Z"/>
      <path class="cls-3" d="M10.78,42.68c2.48-1.45,2.49-6.12.04-10.43-2.46-4.31-6.46-6.63-8.94-5.18-2.48,1.45-2.49,6.12-.04,10.43,2.46,4.31,6.46,6.63,8.94,5.18Z"/>
      <path class="cls-3" d="M44.58,22.93c2.48-1.45,2.49-6.12.04-10.43-2.46-4.31-6.46-6.63-8.94-5.18-2.48,1.45-2.49,6.12-.04,10.43,2.46,4.31,6.46,6.63,8.94,5.18Z"/>
    </g>
  </g>
</svg>