<?xml version="1.0" encoding="UTF-8"?>
<svg id="Capa_2" data-name="Capa 2" xmlns="http://www.w3.org/2000/svg" viewBox="0 0 101.41 59.47">
  <defs>
    <style>
      .cls-1 {
        fill: #fff;
      }
    </style>
  </defs>
  <g id="site">
    <g>
      <polygon class="cls-1" points="5.14 53.07 3.86 53.07 1.89 48.66 1.89 53.07 .41 53.07 .41 46.01 1.95 46.01 4.49 52.06 6.89 46.01 8.42 46.01 8.42 53.07 6.95 53.07 6.95 48.66 5.14 53.07"/>
      <polygon class="cls-1" points="19.7 46.93 16.4 46.93 16.4 48.85 19.03 48.85 19.03 49.76 16.4 49.76 16.4 52.15 19.84 52.15 19.84 53.07 14.92 53.07 14.92 46.01 19.7 46.01 19.7 46.93"/>
      <path class="cls-1" d="M27.49,46.92v5.24h.45c.42,0,.8-.05,1.16-.17.36-.11.65-.27.92-.5.26-.23.46-.51.6-.85.15-.34.22-.74.22-1.21,0-.33-.06-.63-.15-.93-.1-.3-.26-.57-.48-.8-.22-.23-.51-.42-.86-.56-.36-.14-.79-.22-1.31-.22h-.55ZM28.13,46.01c.77,0,1.43.09,1.97.27.54.19.98.43,1.32.74.34.32.59.68.75,1.1.15.42.22.86.22,1.32,0,.34-.03.64-.09.95-.07.3-.17.58-.31.85-.14.27-.33.51-.55.73-.23.22-.5.42-.82.58-.32.17-.69.29-1.11.38-.42.09-.9.13-1.44.13h-2.06v-7.06h2.12Z"/>
      <polygon class="cls-1" points="43.57 46.93 40.27 46.93 40.27 48.85 42.89 48.85 42.89 49.76 40.27 49.76 40.27 52.15 43.7 52.15 43.7 53.07 38.79 53.07 38.79 46.01 43.57 46.01 43.57 46.93"/>
      <polygon class="cls-1" points="54.99 53.07 49.87 53.07 49.87 46.01 51.35 46.01 51.35 52.15 54.99 52.15 54.99 53.07"/>
      <polygon class="cls-1" points="66.01 53.07 60.89 53.07 60.89 46.01 62.37 46.01 62.37 52.15 66.01 52.15 66.01 53.07"/>
      <path class="cls-1" d="M71.91,46.01h1.49v7.06h-1.49v-7.06ZM71.53,45.06l1.85-1.93,1.02.93-2.28,1.47-.59-.48Z"/>
      <polygon class="cls-1" points="81.28 48.01 81.28 53.07 79.8 53.07 79.8 46.01 81.2 46.01 84.78 51.08 84.78 46.01 86.26 46.01 86.28 53.07 84.88 53.07 81.28 48.01"/>
      <path class="cls-1" d="M2.2,58.97c-.1.14-.22.26-.36.35-.14.1-.35.14-.61.14-.38,0-.68-.15-.9-.45-.22-.31-.33-.69-.33-1.17,0-.44.11-.82.32-1.13.21-.31.53-.46.94-.46.17,0,.32.03.46.08.13.05.26.14.38.28l-.2.22c-.09-.1-.19-.17-.29-.21-.11-.05-.22-.07-.35-.07-.29,0-.51.12-.67.37-.16.25-.23.55-.23.89,0,.44.08.78.26,1.03.18.24.38.36.61.36s.38-.04.48-.11c.09-.07.19-.16.27-.29l.23.18Z"/>
      <polygon class="cls-1" points="4.85 56.61 3.59 56.61 3.59 57.66 4.6 57.66 4.6 57.91 3.59 57.91 3.59 59.14 4.91 59.14 4.91 59.41 3.26 59.41 3.26 56.33 4.85 56.33 4.85 56.61"/>
      <polygon class="cls-1" points="6.32 56.88 6.32 59.42 6.01 59.42 6 56.33 6.32 56.33 7.81 58.88 7.81 56.33 8.13 56.33 8.13 59.42 7.82 59.42 6.32 56.88"/>
      <polygon class="cls-1" points="11.29 56.62 10.37 56.62 10.37 59.41 10.04 59.41 10.04 56.62 9.12 56.62 9.12 56.33 11.29 56.33 11.29 56.62"/>
      <path class="cls-1" d="M12.6,57.85h.31c.25,0,.45-.06.59-.18.14-.12.21-.28.21-.46,0-.21-.06-.37-.18-.47-.11-.11-.31-.14-.58-.14h-.36v1.24ZM12.6,59.41h-.32v-3.08h.81c.32,0,.55.07.72.23.16.15.24.37.24.65,0,.18-.06.36-.19.51-.12.15-.27.25-.43.29l.84,1.39h-.38l-.78-1.32s-.18,0-.51,0v1.32Z"/>
      <path class="cls-1" d="M16.52,59.19c.25,0,.47-.12.66-.35.2-.24.3-.59.3-1.05,0-.3-.08-.57-.23-.84-.15-.27-.39-.4-.71-.4s-.56.11-.74.36c-.18.23-.26.55-.26.92,0,.44.09.78.28,1.02.18.23.42.35.71.35M16.5,59.47c-.42,0-.74-.15-.97-.45-.23-.31-.34-.7-.34-1.21,0-.45.12-.82.38-1.12.25-.3.58-.44.96-.44.41,0,.73.15.96.44.22.3.34.69.34,1.18,0,.45-.13.84-.38,1.14-.25.3-.57.45-.94.45"/>
      <path class="cls-1" d="M20.66,56.59v2.57h.24c.36,0,.64-.11.83-.33.21-.23.31-.57.31-1.01,0-.38-.1-.69-.29-.9-.19-.21-.47-.32-.85-.32h-.24ZM20.98,56.33c.47,0,.83.13,1.07.4.23.26.35.63.35,1.08,0,.52-.12.92-.37,1.19-.25.28-.61.41-1.07.41h-.61v-3.08h.64Z"/>
      <polygon class="cls-1" points="25.15 56.61 23.88 56.61 23.88 57.66 24.89 57.66 24.89 57.91 23.88 57.91 23.88 59.14 25.21 59.14 25.21 59.41 23.56 59.41 23.56 56.33 25.15 56.33 25.15 56.61"/>
      <rect class="cls-1" x="27.65" y="56.33" width=".32" height="3.08"/>
      <polygon class="cls-1" points="29.5 56.88 29.5 59.42 29.18 59.42 29.18 56.33 29.5 56.33 30.98 58.88 30.98 56.33 31.31 56.33 31.31 59.42 31 59.42 29.5 56.88"/>
      <polygon class="cls-1" points="32.84 56.88 32.84 59.42 32.52 59.42 32.52 56.33 32.84 56.33 34.32 58.88 34.32 56.33 34.65 56.33 34.65 59.42 34.34 59.42 32.84 56.88"/>
      <path class="cls-1" d="M37.15,59.19c.25,0,.48-.12.67-.35.19-.24.29-.59.29-1.05,0-.3-.07-.57-.23-.84-.15-.27-.39-.4-.71-.4-.31,0-.56.11-.74.36-.17.23-.26.55-.26.92,0,.44.09.78.28,1.02.2.23.42.35.71.35M37.13,59.47c-.42,0-.74-.15-.97-.45-.23-.31-.35-.7-.35-1.21,0-.45.13-.82.39-1.12.26-.3.57-.44.95-.44.41,0,.73.15.96.44.21.3.34.69.34,1.18,0,.45-.12.84-.38,1.14-.25.3-.56.45-.94.45"/>
      <polygon class="cls-1" points="41.29 56.33 41.63 56.33 40.65 59.42 40.34 59.42 39.39 56.33 39.74 56.33 40.51 58.94 41.29 56.33"/>
      <path class="cls-1" d="M43.09,58.13h.88l-.43-1.41-.45,1.41ZM43.4,56.33h.31l.99,3.08h-.36l-.32-1.05h-1.01l-.32,1.05h-.32l1.02-3.08Z"/>
      <path class="cls-1" d="M47.84,58.97c-.1.14-.23.26-.37.35-.14.1-.34.14-.61.14-.38,0-.67-.15-.9-.45-.22-.31-.32-.69-.32-1.17,0-.44.11-.82.32-1.13.21-.31.53-.46.94-.46.17,0,.32.03.46.08.13.05.26.14.38.28l-.2.22c-.09-.1-.19-.17-.29-.21-.11-.05-.23-.07-.36-.07-.29,0-.51.12-.66.37-.16.25-.24.55-.24.89,0,.44.1.78.27,1.03.18.24.39.36.61.36s.39-.04.48-.11c.1-.07.19-.16.27-.29l.24.18Z"/>
      <rect class="cls-1" x="48.9" y="56.33" width=".33" height="3.08"/>
      <path class="cls-1" d="M51.47,56l.58-.68.22.25-.69.55-.11-.12ZM51.73,59.19c.24,0,.47-.12.66-.35.2-.24.29-.59.29-1.05,0-.3-.07-.57-.23-.84-.15-.27-.39-.4-.71-.4s-.56.11-.74.36c-.17.23-.26.55-.26.92,0,.44.1.78.28,1.02.19.23.43.35.71.35M51.7,59.47c-.42,0-.74-.15-.97-.45-.23-.31-.34-.7-.34-1.21,0-.45.13-.82.39-1.12.26-.3.58-.44.95-.44.42,0,.74.15.96.44.23.3.34.69.34,1.18,0,.45-.12.84-.37,1.14-.25.3-.57.45-.95.45"/>
      <polygon class="cls-1" points="54.52 56.88 54.52 59.42 54.2 59.42 54.19 56.33 54.52 56.33 56 58.88 56 56.33 56.33 56.33 56.33 59.42 56.01 59.42 54.52 56.88"/>
      <polygon class="cls-1" points="59.56 59.41 59.56 58.01 58.69 56.33 59.03 56.33 59.73 57.72 60.43 56.33 60.78 56.33 59.89 57.98 59.89 59.41 59.56 59.41"/>
      <polygon class="cls-1" points="63.46 56.88 63.46 59.42 63.14 59.42 63.14 56.33 63.46 56.33 64.95 58.88 64.95 56.33 65.27 56.33 65.27 59.42 64.96 59.42 63.46 56.88"/>
      <polygon class="cls-1" points="68.07 56.61 66.8 56.61 66.8 57.66 67.82 57.66 67.82 57.91 66.8 57.91 66.8 59.14 68.13 59.14 68.13 59.41 66.48 59.41 66.48 56.33 68.07 56.33 68.07 56.61"/>
      <path class="cls-1" d="M71.39,59.28c-.1.04-.24.09-.41.13-.17.04-.36.06-.59.06-.38,0-.67-.15-.89-.45-.21-.31-.32-.69-.32-1.17,0-.44.11-.82.32-1.13.21-.31.51-.46.9-.46.21,0,.39.03.5.08.12.05.24.14.38.28l-.21.21c-.1-.1-.2-.18-.29-.21-.1-.05-.23-.07-.39-.07-.26,0-.47.12-.62.37-.16.25-.24.55-.24.89,0,.44.09.78.27,1.03.18.24.39.36.64.36.12,0,.23-.01.34-.03.11-.02.21-.04.29-.07v-1.15h.33v1.35Z"/>
      <path class="cls-1" d="M73.74,59.19c.25,0,.47-.12.66-.35.2-.24.29-.59.29-1.05,0-.3-.07-.57-.23-.84-.16-.27-.39-.4-.72-.4-.3,0-.55.11-.73.36-.18.23-.27.55-.27.92,0,.44.1.78.29,1.02.18.23.43.35.71.35M73.71,59.47c-.41,0-.74-.15-.97-.45-.23-.31-.34-.7-.34-1.21,0-.45.12-.82.38-1.12.26-.3.58-.44.95-.44.42,0,.73.15.96.44.23.3.34.69.34,1.18,0,.45-.13.84-.38,1.14-.25.3-.57.45-.95.45"/>
      <path class="cls-1" d="M78.37,58.97c-.1.14-.22.26-.36.35-.15.1-.35.14-.61.14-.37,0-.67-.15-.89-.45-.22-.31-.33-.69-.33-1.17,0-.44.11-.82.32-1.13.21-.31.52-.46.94-.46.17,0,.32.03.45.08.13.05.25.14.38.28l-.2.22c-.09-.1-.19-.17-.3-.21-.11-.05-.23-.07-.35-.07-.28,0-.51.12-.66.37-.16.25-.24.55-.24.89,0,.44.09.78.26,1.03.18.24.39.36.61.36s.38-.04.48-.11c.1-.07.19-.16.27-.29l.23.18Z"/>
      <rect class="cls-1" x="79.43" y="56.33" width=".33" height="3.08"/>
      <path class="cls-1" d="M82.26,59.19c.25,0,.47-.12.67-.35.2-.24.3-.59.3-1.05,0-.3-.08-.57-.23-.84-.15-.27-.39-.4-.72-.4s-.56.11-.74.36c-.18.23-.27.55-.27.92,0,.44.1.78.28,1.02.2.23.43.35.71.35M82.24,59.47c-.42,0-.74-.15-.98-.45-.22-.31-.34-.7-.34-1.21,0-.45.13-.82.39-1.12.25-.3.58-.44.95-.44.41,0,.73.15.95.44.23.3.35.69.35,1.18,0,.45-.13.84-.38,1.14-.25.3-.57.45-.95.45"/>
      <path class="cls-1" d="M84.83,58.79c.09.1.2.19.33.27.13.08.28.12.45.12.2,0,.36-.05.47-.14.12-.1.18-.24.18-.4,0-.18-.05-.31-.17-.39-.11-.08-.26-.17-.48-.25l-.16-.07c-.23-.08-.42-.2-.57-.35-.15-.13-.24-.32-.24-.56s.1-.42.27-.57c.18-.13.4-.2.67-.2.2,0,.38.03.52.1.14.07.26.16.37.27l-.19.23c-.07-.08-.18-.15-.29-.22-.11-.06-.24-.09-.4-.09-.18,0-.33.04-.44.12-.12.09-.17.2-.17.33,0,.16.06.29.19.39.13.1.27.17.4.22l.28.12c.29.11.49.23.59.36.1.13.16.3.16.51,0,.28-.1.5-.29.65-.19.15-.42.23-.7.23-.11,0-.22,0-.32-.02-.09-.02-.18-.05-.27-.08-.08-.03-.16-.08-.23-.13-.07-.05-.15-.12-.22-.2l.25-.24Z"/>
      <path class="cls-1" d="M81.5,31.15c0,2.5-1.13,3.67-3.56,3.67h-10.02c-2.43,0-3.56-.99-3.56-3.13v-1.2c0-2.07,1.14-3.03,3.56-3.03h13.59v3.69ZM86.93,21.82v-3.65c0-6.17-3.02-9.3-8.99-9.3h-22.46V.04l-5.41-.04v8.87h-10.05v22.39c0,2.43-1.14,3.55-3.56,3.55h-10.07c-2.42,0-3.56-1.16-3.56-3.67V8.87h-5.41v22.28c0,6.17,3.01,9.3,8.95,9.3h10.08c5.97,0,9-3.09,9-9.19V14.5h4.62v25.95h5.41V14.5h22.46c2.42,0,3.55,1.17,3.55,3.67v3.65h-13.59c-5.97,0-8.99,2.91-8.99,8.66v1.2c0,5.81,3.02,8.76,9,8.76h10.02c5.97,0,9-3.13,9-9.3v-3.69h8.92l5.55-5.63h-14.47ZM.32,18.17v22.27h5.4v-22.27c0-2.5,1.13-3.67,3.55-3.67h5.89v-5.63h-5.89C3.33,8.87.32,12,.32,18.17"/>
      <path class="cls-1" d="M100.04,5.64l.71.23c-.43,1.1-.93,1.9-1.5,2.41-.58.51-1.17.77-1.76.77-.5,0-.89-.15-1.17-.42-.28-.29-.43-.67-.43-1.14,0-.42.14-1.1.39-2.02.38-1.39.6-2.25.66-2.57.06-.32.1-.58.1-.78,0-.22-.06-.4-.16-.52-.11-.13-.24-.19-.4-.19-.28,0-.59.12-.92.36-.54.4-1.04,1-1.52,1.8-.48.8-.83,1.63-1.07,2.49l-.76,2.81-2.32.1,1.81-7.01c.01-.08.03-.14.03-.21,0-.18-.06-.31-.19-.4-.12-.1-.36-.14-.7-.14h-.46l.13-.83,3.78-.17-.67,2.93c1.29-2.03,2.55-3.03,3.78-3.03.56,0,1.01.17,1.37.53.36.36.53.81.53,1.35,0,.43-.08.97-.24,1.59l-.8,3.08c-.15.49-.22.8-.22.93,0,.09.03.16.06.2.05.05.11.07.19.07.19,0,.41-.12.63-.36.37-.41.73-1.03,1.08-1.83"/>
    </g>
  </g>
</svg>