<?xml version="1.0" encoding="UTF-8"?>
<svg id="Capa_2" data-name="Capa 2" xmlns="http://www.w3.org/2000/svg" viewBox="0 0 193.4 50.87">
  <defs>
    <style>
      .cls-1 {
        fill: #fff;
      }

      .cls-2 {
        fill: #ec008c;
      }
    </style>
  </defs>
  <g id="site">
    <g id="Layer_1-2" data-name="Layer 1-2">
      <g>
        <path class="cls-2" d="M45.89,25.52v9.55c0,2.32-.96,4.03-2.97,5.19-4.47,2.56-8.9,5.08-13.34,7.64-1.16.68-2.35,1.33-3.51,2.05-2.05,1.23-4.03,1.23-6.11,0-5.66-3.28-11.39-6.52-17.06-9.79-1.91-1.13-2.9-2.8-2.9-4.95V15.63c0-2.29,1.19-3.96,3.17-5.08,4.78-2.73,9.52-5.46,14.29-8.19.89-.51,1.77-.99,2.63-1.54,1.88-1.13,3.82-1.06,5.66,0,5.59,3.17,11.16,6.41,16.75,9.59,2.32,1.3,3.45,3.17,3.38,5.83-.07,3.07,0,6.17,0,9.25h0v.03ZM44.52,25.52h.03v-10.06c0-1.23-.38-2.29-1.36-3.07-.72-.55-1.5-1.06-2.29-1.5-4.95-2.87-9.93-5.63-14.84-8.53-2.01-1.19-3.89-1.3-5.94-.1-5.46,3.17-10.92,6.31-16.41,9.45-1.64.96-2.35,2.32-2.35,4.16v19.38c0,1.64.65,2.93,2.12,3.79,5.59,3.21,11.19,6.38,16.75,9.62,1.91,1.13,3.68,1.16,5.59,0,2.66-1.6,5.36-3.1,8.05-4.64,2.73-1.57,5.46-3.14,8.19-4.67,1.77-.99,2.59-2.39,2.52-4.5-.14-3.1,0-6.21,0-9.31h-.07Z"/>
        <path class="cls-1" d="M100.57,17.06c2.76.03,5.46-.2,8.12.41,3.68.82,6.11,3.75,6.24,7.54.1,2.63-.51,5.05-2.59,6.82-1.91,1.64-4.2,2.12-6.62,2.08h-4.43c-.51,0-.75-.1-.75-.68v-15.62c0-.17,0-.34.07-.58l-.03.03ZM104.12,25.48h.03v4.78c0,.44.1.68.61.65.78-.07,1.6,0,2.39-.14,2.18-.27,3.82-1.74,4.09-3.79.1-.82.1-1.64,0-2.46-.14-1.26-.58-2.42-1.67-3.24-1.57-1.16-3.34-1.16-5.15-1.09-.1,0-.31.38-.31.58,0,1.57,0,3.14,0,4.71Z"/>
        <path class="cls-1" d="M177.74,21.83v1.6c1.09-1.13,2.29-1.84,3.75-1.74,1.43.1,2.73.51,3.38,2.12.27-.27.51-.48.72-.68,1.94-1.94,5.12-1.88,6.82.2.65.78.96,1.77.96,2.76.07,2.56,0,5.15,0,7.81h-3.41c0-.2-.03-.48,0-.72v-6.14c0-.99-.31-1.81-1.23-2.29-1.5-.75-3.14.24-3.17,2.05-.07,2.08,0,4.13,0,6.21q0,.96-.92.96c-.58,0-1.16-.03-1.74,0-.55.03-.65-.2-.65-.68.03-1.91.07-3.82.07-5.7,0-.51-.03-1.06-.2-1.57-.31-1.02-1.16-1.64-2.08-1.54-1.23.14-2.15.85-2.18,1.94-.07,2.22-.1,4.43-.07,6.65,0,.65-.14.96-.82.89-.68-.03-1.36,0-2.05,0-.38,0-.48-.14-.48-.51v-10.99c0-.44.1-.68.61-.65h2.73-.03Z"/>
        <path class="cls-1" d="M89.93,20.23v3.17c0,.14.34.34.55.34,1.74.03,3.48.03,5.25.03h.44v2.73c0,.14-.38.38-.61.38-1.67,0-3.34.03-5.01,0-.55,0-.65.17-.61.65.07.85.07,1.74,0,2.59-.03.51.07.65.61.65,2.32,0,4.67,0,6.99.03.17,0,.34,0,.55.03v2.59c0,.14-.41.38-.61.38-1.43,0-2.87-.03-4.3-.03h-6.82v-16.75h11.57v2.76c0,.14-.41.34-.61.34h-7.27l-.1.1Z"/>
        <path class="cls-1" d="M83.62,17.16v2.56c0,.51-.31.48-.68.48h-7.23v3.21c0,.14.38.31.55.31,1.6,0,3.21.07,4.81,0,.68,0,.96.2.89.92-.07.55-.03,1.09,0,1.67,0,.48-.14.61-.61.61h-5.59v3.96h8.09v2.59c0,.17-.34.41-.55.44-.58.07-1.16,0-1.74,0-2.9,0-5.77,0-8.67.03-.65,0-.75-.17-.75-.78v-15.39c0-.41-.03-.75.58-.75h10.54c.1,0,.17.03.38.07v.07Z"/>
        <path class="cls-1" d="M69.15,22.24h-3c-.14,0-.34-.24-.38-.38-.55-1.74-3.14-2.52-4.57-1.36-.92.75-.72,2.29.41,2.76.96.41,1.98.65,2.97.92,1.4.38,2.76.68,3.82,1.77,1.43,1.5,1.54,4.5.14,6.04-2.32,2.59-7.16,2.9-9.79.65-1.19-.99-1.77-2.32-2.01-3.82-.07-.38.07-.55.48-.55h2.46c.17,0,.48.24.51.44.61,2.35,2.83,2.63,4.61,2.05.72-.24,1.13-.82,1.19-1.6.03-.72-.31-1.3-.99-1.54-.92-.38-1.88-.61-2.83-.89-1.3-.38-2.59-.68-3.65-1.67-1.71-1.57-2.15-5.42.89-7.13,2.35-1.3,4.78-1.3,7.16-.07,1.54.78,2.52,2.52,2.56,4.37h.03Z"/>
        <path class="cls-1" d="M168.33,23.03c.07-.8.49-1.19,1.26-1.19h2.05v11.19c0,.68-.17.96-.92.89-.75-.07-1.54,0-2.35,0-.03-.41-.07-.72-.1-.99-.78.34-1.54.85-2.35,1.02-3.17.72-6-1.19-6.58-4.4-.38-2.08-.17-4.06,1.13-5.83,1.57-2.15,5.49-2.83,7.57-.85.03.03.1.07.24.14l.07.03ZM165.43,24.53c-1.54.07-2.63.96-2.87,2.42-.1.61-.1,1.26,0,1.88.17,1.13,1.02,2.46,2.9,2.52,1.3.07,2.56-.72,2.83-2.08.17-.92.14-1.91-.1-2.83-.31-1.23-1.5-1.94-2.76-1.91Z"/>
        <path class="cls-1" d="M143.86,32.79c-.92.96-1.94,1.33-3.14,1.33-2.9,0-4.98-1.57-5.59-4.37-.41-1.77-.31-3.55.51-5.22,1.4-2.9,5.73-3.86,8.19-1.54,0,0,.1-.03.1-.07.14-.73.58-1.09,1.33-1.09h2.12c0,.2.07.38.07.58v10.85c0,.55-.17.75-.72.72h-1.67c-1.23,0-1.02.17-1.16-1.16l-.03-.03ZM144.27,27.94c-.1-.55-.17-1.09-.34-1.6-.27-.96-.96-1.54-1.94-1.77-2.12-.48-3.72.75-3.89,3-.14,1.81.75,3.31,2.18,3.65,2.22.55,3.96-.89,3.99-3.28Z"/>
        <path class="cls-1" d="M122.95,17.09h3.55v13.13c0,.51.1.65.65.65h6.55c.48,0,.58.2.58.61,0,.55-.07,1.13,0,1.67.03.61-.2.78-.78.78-2.39-.03-4.74-.03-7.13-.07h-3.34v-16.78h-.07Z"/>
        <path class="cls-1" d="M154.68,24.63v5.36c0,.65.41,1.02,1.02,1.13.68.1,1.4.1,2.22.17v2.22c0,.14-.31.41-.44.41-1.02,0-2.05.03-3.04-.17-1.94-.44-2.97-1.74-3.07-3.68-.1-1.57-.07-3.17-.07-4.78,0-.48-.1-.65-.58-.61q-1.77,0-1.74-1.77c0-.31.03-.61.07-1.02h1.47c.51,0,.75-.24.75-.75v-2.76h3.45c0,.92.03,1.81,0,2.66-.03.68.14.96.89.89.75-.07,1.54,0,2.39,0v2.46c0,.1-.34.31-.51.31h-2.73l-.07-.03Z"/>
        <path class="cls-2" d="M23.71,26.64c.27.1.44.17.58.24,5.01,3.07,10.06,6.17,15.08,9.28.99.61.99.89-.03,1.47-4.91,2.8-9.83,5.59-14.74,8.39-.75.41-1.06.27-1.19-.58-.07-.55-.07-1.09-.07-1.67,0-5.22,0-10.44-.03-15.66,0-.31,0-.65.03-.92.07-.2.27-.38.41-.55h-.03ZM38.18,36.88c-4.67-2.87-9.11-5.59-13.54-8.29v7.85c.31-.14.44-.2.58-.27,1.19-.65,2.42-1.3,3.62-2.01.51-.27.82-.14,1.06.31.24.44-.07.65-.41.82-1.47.75-2.93,1.47-4.37,2.25-.24.14-.48.48-.48.75-.03,1.84,0,3.72,0,5.56,0,.17.03.31.1.65,4.47-2.52,8.87-5.01,13.48-7.64l-.03.03Z"/>
        <path class="cls-2" d="M41.93,25.42v7.3c0,.61,0,1.19-.1,1.81-.1,1.02-.38,1.16-1.23.68-2.59-1.5-5.19-3-7.78-4.5s-5.19-3-7.78-4.5c-1.33-.78-1.33-1.06,0-1.81,4.47-2.49,8.97-4.98,13.44-7.47.75-.41,1.54-.82,2.32-1.19.58-.31.96-.14,1.02.51.07.75.1,1.5.1,2.25v6.93h0ZM40.43,17.43c-4.84,2.63-9.59,5.19-14.46,7.85,4.84,2.83,9.59,5.59,14.46,8.43v-16.27Z"/>
        <path class="cls-2" d="M5.25,33.43c1.02-.61,1.88-1.09,2.7-1.67.17-.1.17-.51.17-.78v-11.91c0-.27-.03-.58.07-.78.27-.48.68-.44,1.13-.2,2.8,1.5,5.59,3,8.36,4.5,1.06.58,2.15,1.13,3.17,1.74.89.51.89.92,0,1.43-1.54.89-3.07,1.77-4.57,2.66-.14.07-.27.17-.38.17-.27,0-.55-.1-.85-.17.1-.31.1-.75.34-.92.51-.41,1.13-.65,1.67-.99.78-.44,1.54-.89,2.49-1.47-3.41-1.84-6.65-3.62-10.03-5.46,0,.41-.07.61-.07.85v11.05c0,.61-.2.99-.72,1.3-1.13.68-2.22,1.4-3.34,2.08-1.09.65-1.5.44-1.5-.82v-17.5c0-.51.1-.96.72-.96s.61.48.61.92v16.92h.03Z"/>
        <path class="cls-2" d="M25.07,6.35v10.41c.58-.31,1.09-.58,1.6-.85,1.47-.85,2.93-1.71,4.4-2.56.38-.2.75-.41,1.16-.61.38-.17.78-.31,1.06.2.24.51-.1.68-.44.89-1.06.61-2.15,1.19-3.21,1.81-1.36.78-2.73,1.57-4.06,2.39-.24.14-.44.51-.48.78-.07,1.06,0,2.12,0,3.24.99-.55,1.88-1.06,2.76-1.57,3.72-2.15,7.44-4.26,11.12-6.41.1-.07.2-.14.31-.17.41-.24.85-.38,1.16.1.31.48-.17.78-.48.96-1.98,1.16-3.96,2.32-5.97,3.45-2.76,1.6-5.53,3.17-8.32,4.74-.27.17-.55.31-.85.44-.85.41-1.13.27-1.19-.68-.07-.92,0-1.84,0-2.73V5.7c0-1.13.34-1.33,1.3-.82,1.64.85,3.21,1.77,4.84,2.66.07.03.1.07.17.14.38.24.44.55.24.92-.24.41-.55.31-.85.14-1.23-.68-2.46-1.36-3.68-2.05-.17-.1-.31-.17-.58-.34Z"/>
        <path class="cls-2" d="M6.89,14.02c3.21,1.81,6.31,3.55,9.55,5.36.03-.41.07-.72.07-.99v-6.99c0-.44-.14-1.13.51-1.16.78-.03.78.65.78,1.19,0,2.66,0,5.29-.03,7.95,0,.58.17.96.68,1.19.82.41,1.6.89,2.52,1.4V5.63c0-.48,0-.96.65-.99.65,0,.72.48.72.96,0,5.59.03,11.19.03,16.78,0,1.47-.38,1.64-1.6.96-4.88-2.76-9.76-5.53-14.67-8.29-1.6-.89-1.6-1.13-.07-2.08,1.09-.68,2.18-1.33,3.28-2.01.27-.17.55-.34.82-.48.44-.2.96-.44,1.26.14.27.55-.27.75-.61.99-.99.61-1.98,1.19-2.97,1.81-.31.17-.58.41-.92.65v-.03Z"/>
        <path class="cls-2" d="M6.72,36.88c4.71,2.59,9.25,5.08,13.99,7.68,0-.65-.07-1.13,0-1.54.07-.31.34-.75.61-.82.48-.14.75.27.75.72,0,.85.03,1.74-.03,2.59-.07.78-.38.92-1.09.58-1.47-.78-2.93-1.6-4.4-2.39-3.41-1.88-6.82-3.75-10.23-5.63-.48-.24-.92-.55-1.33-.85-.34-.24-.38-.55,0-.82.2-.14.38-.31.58-.41,4.91-2.87,9.83-5.73,14.74-8.56.2-.14.44-.31.65-.31.31,0,.78,0,.92.2.27.34,0,.65-.38.85-1.02.58-2.05,1.19-3.07,1.81-3.86,2.25-7.74,4.5-11.8,6.86l.1.03Z"/>
      </g>
    </g>
  </g>
</svg>