<?xml version="1.0" encoding="UTF-8"?>
<svg id="Capa_2" data-name="Capa 2" xmlns="http://www.w3.org/2000/svg" viewBox="0 0 125.02 24.95">
  <defs>
    <style>
      .cls-1 {
        fill: #fff;
      }
    </style>
  </defs>
  <g id="site">
    <g>
      <path class="cls-1" d="M0,24.88c.54-.92,1.08-1.83,1.6-2.75C5.8,14.86,10,7.58,14.19.29c.05-.09.1-.17.18-.29,4.79,8.31,9.56,16.59,14.36,24.93h-.44c-9.31,0-18.62,0-27.93,0-.12,0-.24.01-.37.02,0-.02,0-.04,0-.06Z"/>
      <path class="cls-1" d="M28.29,1.12c.7,0,1.33,0,1.96,0,.97,0,1.95,0,2.92,0,.23,0,.34.07.44.27,1.74,3.48,3.49,6.96,5.23,10.43.92,1.83,1.85,3.67,2.77,5.5.04.07.08.14.13.24.06-.11.11-.19.16-.28,2.31-4.59,4.61-9.18,6.92-13.77.36-.72.72-1.44,1.1-2.16.05-.1.2-.23.3-.23,1.62-.01,3.24,0,4.85,0,.03,0,.06.01.13.02-.3.58-.6,1.14-.9,1.71-1.3,2.45-2.6,4.91-3.9,7.36-1.65,3.11-3.3,6.23-4.95,9.34-.7,1.33-1.41,2.65-2.11,3.98-.09.18-.19.25-.39.25-.82-.01-1.64,0-2.46,0-.16,0-.25-.05-.33-.2-2.17-4.11-4.35-8.21-6.52-12.32-1.74-3.28-3.47-6.55-5.21-9.83-.05-.09-.09-.18-.16-.32Z"/>
      <path class="cls-1" d="M69.68,16.45h-12.61c.02,2.22,1.24,4.17,3.53,4.45,1.27.16,2.44-.09,3.4-.95.37-.33.64-.79.96-1.18.07-.08.18-.17.27-.17,1.34.08,2.68.18,4.01.28.06,0,.11.03.2.04-.31.93-.77,1.76-1.42,2.46-1.89,2.04-4.28,2.84-7.02,2.78-1.56-.03-3.05-.36-4.41-1.14-1.73-.98-2.91-2.43-3.54-4.3-.8-2.38-.8-4.77.12-7.11,1.16-2.93,3.41-4.54,6.49-5.01,1.73-.27,3.44-.16,5.07.51,2.58,1.06,4.04,3.06,4.67,5.72.28,1.17.32,2.36.28,3.62ZM65.23,13.71c-.17-2.51-1.74-3.95-3.8-4-2.63-.07-4.09,1.75-4.35,4h8.15Z"/>
      <path class="cls-1" d="M105.68,16.45c.08,2.75,1.74,4.74,4.68,4.47,1.42-.13,2.49-.86,3.19-2.1.1-.18.2-.23.41-.21,1.27.1,2.53.18,3.8.27.09,0,.18.02.3.04-.2.65-.5,1.23-.87,1.76-1.04,1.49-2.46,2.47-4.17,3.02-2.13.68-4.28.66-6.4-.05-2.39-.8-4.04-2.41-4.9-4.77-.88-2.41-.88-4.86.06-7.25,1.09-2.77,3.18-4.39,6.09-4.95,1.91-.37,3.8-.28,5.6.5,2.5,1.08,3.92,3.05,4.54,5.65.28,1.18.33,2.38.29,3.63h-12.63ZM113.85,13.71c-.14-2.52-1.77-4-3.93-4.01-2.78,0-4.05,2.11-4.2,4.01h8.12Z"/>
      <path class="cls-1" d="M99.64,12.87c-1.49.08-2.95.15-4.38.22-.17-.46-.29-.91-.51-1.31-.74-1.37-2.24-2.13-3.8-1.96-1.87.2-3.09,1.2-3.6,3.01-.5,1.74-.5,3.5.07,5.22.91,2.73,4.29,3.73,6.49,1.94.74-.6,1.12-1.41,1.31-2.33.01-.06.02-.12.04-.18,0-.04.02-.08.04-.14,1.47.06,2.93.13,4.43.19-.08.91-.33,1.74-.74,2.52-.98,1.84-2.5,3.04-4.46,3.65-2.17.67-4.37.66-6.52-.07-2.19-.74-3.78-2.2-4.67-4.33-1.09-2.63-1.11-5.31,0-7.94,1.11-2.64,3.19-4.17,5.98-4.7,2.31-.44,4.55-.2,6.65.92,2.1,1.12,3.35,2.85,3.69,5.27Z"/>
      <path class="cls-1" d="M125.02,23.77h-4.25V1.14h4.25v22.63Z"/>
      <path class="cls-1" d="M76.17,10.04c.14-.32.23-.56.34-.8.65-1.45,1.78-2.24,3.36-2.33.71-.04,1.43,0,2.17,0v3.45c-.17,0-.34,0-.51,0-.83.04-1.66.01-2.48.13-1.65.23-2.59,1.3-2.7,2.95-.01.2-.02.41-.02.61,0,3.12,0,6.24,0,9.35v.37h-4.26V6.89h3.98c.04,1.02.08,2.04.12,3.15Z"/>
    </g>
  </g>
</svg>